<?xml version="1.0" encoding="UTF-8"?>
<svg xmlns="http://www.w3.org/2000/svg" xmlns:xlink="http://www.w3.org/1999/xlink" version="1.2" >
<font id="Uthman Regular">
<font-face  font-family="Uthman" units-per-em="1000" ascent="800" descent="-200" font-style="normal" font-weight="400" font-stretch="normal" cap-height="870" x-height="434" underline-position="0" underline-thickness="0" />
<missing-glyph  horiz-adv-x="472" d="M0 700 C0 700 432 700 432 700 C432 700 432 0 432 0 C432 0 0 0 0 0 C0 0 0 700 0 700 L0 700 Z M50 50 C50 50 382 50 382 50 C382 50 382 650 382 650 C382 650 50 650 50 650 C50 650 50 50 50 50 L50 50 Z " />
<glyph glyph-name="NULL" d="" />
<glyph glyph-name="CR" unicode="&#xd;" horiz-adv-x="250" d="" />
<glyph glyph-name="space" unicode="&#x20;" horiz-adv-x="137" d="" />
<glyph glyph-name="exclam" unicode="&#x21;" horiz-adv-x="135" d="M44 134 C42 146 41 157 41 166 C41 222 42 277 41 332 C41 388 40 443 40 499 C40 499 40 863 40 863 C40 865 41 865 40 867 C40 869 40 871 41 872 C43 874 43 874 45 876 C47 878 49 879 50 879 C52 879 53 878 55 876 C58 874 59 873 59 871 C59 867 59 862 58 857 C58 853 57 848 57 843 C57 796 56 750 55 702 C55 655 54 608 54 560 C54 493 55 426 55 359 C56 293 57 226 57 158 C57 154 58 151 57 146 C57 142 52 138 44 134 L44 134 Z M44 78 C44 78 44 78 44 78 C34 75 29 72 26 69 C24 67 23 61 24 52 C28 28 38 17 53 18 C56 18 57 18 57 18 C61 22 64 25 67 29 C71 33 73 38 74 42 C76 46 77 48 75 52 C74 56 73 60 72 64 C62 59 56 57 53 58 C51 60 48 66 44 78 L44 78 Z M90 53 C90 53 90 53 90 53 C90 38 87 25 79 15 C71 5 62 1 51 2 C47 3 43 4 37 6 C32 9 28 12 25 15 C21 21 18 27 14 34 C11 42 8 49 4 56 C2 62 3 69 7 78 C12 88 17 94 22 97 C29 101 35 103 40 101 C46 99 51 96 56 92 C60 89 64 86 68 82 C73 79 77 75 80 71 C83 68 85 65 86 61 C88 57 89 55 90 53 L90 53 Z " />
<glyph glyph-name="quotedbl" unicode="&#x22;" horiz-adv-x="158" d="M51 770 C51 770 51 770 51 770 C67 784 77 797 82 812 C88 828 92 844 94 860 C95 864 95 868 94 872 C94 876 94 880 94 884 C95 886 96 888 98 890 C101 892 103 893 104 893 C106 893 107 893 109 890 C112 888 113 886 113 884 C113 867 112 851 109 834 C107 818 102 802 94 786 C91 781 86 778 78 774 C71 771 62 770 51 770 L51 770 Z M0 765 C0 765 0 765 0 765 C6 775 12 784 20 792 C28 800 34 810 37 821 C41 833 42 844 44 854 C46 865 46 876 42 887 C48 889 51 890 53 888 C56 886 57 884 57 880 C59 875 60 869 60 863 C61 857 61 852 59 846 C57 836 55 827 51 817 C48 808 45 799 41 789 C34 772 20 764 0 765 L0 765 Z " />
<glyph glyph-name="numbersign" unicode="&#x23;" horiz-adv-x="623" d="M132 290 C132 290 132 290 132 290 C138 290 143 291 147 290 C152 290 156 289 160 289 C180 291 198 291 218 292 C238 294 258 295 277 296 C288 298 299 298 309 298 C320 299 331 300 341 301 C357 301 365 309 365 323 C366 327 367 330 367 333 C368 337 368 340 368 343 C371 371 373 398 375 425 C377 453 379 480 381 508 C382 516 382 522 382 530 C382 538 383 547 383 556 C343 554 305 553 267 551 C229 549 191 547 152 543 C149 500 146 458 141 416 C137 375 134 333 132 290 L132 290 Z M105 264 C105 264 105 264 105 264 C91 263 78 262 65 261 C53 261 40 260 27 259 C23 259 18 260 11 258 C5 257 1 260 1 268 C1 276 3 280 9 279 C15 279 21 279 25 279 C35 281 44 281 54 281 C64 282 74 283 83 283 C95 285 102 286 105 289 C109 293 111 300 112 310 C114 332 116 352 118 374 C120 396 122 418 123 439 C125 453 126 465 127 479 C129 493 130 507 131 520 C131 523 131 525 130 527 C130 530 129 533 128 536 C118 538 109 539 99 538 C89 538 79 537 69 535 C59 534 49 534 39 533 C29 533 19 534 9 536 C9 536 9 547 9 547 C13 549 17 549 21 550 C25 552 30 552 34 552 C46 554 58 555 70 555 C83 556 96 557 108 558 C122 560 130 562 132 564 C135 567 137 575 138 589 C142 623 144 656 146 688 C149 721 152 754 155 786 C156 796 156 804 156 814 C157 824 157 834 157 843 C158 849 158 853 159 857 C161 861 165 863 171 862 C177 862 179 860 180 856 C182 852 182 848 180 843 C179 828 177 812 175 796 C173 780 172 764 170 748 C167 720 165 694 162 666 C160 639 157 611 154 583 C154 580 154 578 154 574 C155 571 156 567 156 563 C156 563 208 563 208 563 C208 563 355 572 355 572 C371 574 380 575 383 578 C387 582 389 591 389 606 C393 646 396 686 398 726 C398 726 407 867 407 867 C409 873 410 876 411 878 C413 880 416 881 418 882 C421 884 424 885 426 886 C428 884 428 882 430 879 C432 877 433 874 433 872 C432 856 431 840 428 824 C426 808 424 792 422 776 C420 746 417 716 415 685 C413 655 411 624 408 594 C408 592 408 591 408 588 C409 586 409 582 409 578 C415 578 421 579 427 578 C433 578 439 577 445 577 C457 578 467 578 478 579 C490 581 501 582 512 582 C517 582 521 583 527 583 C533 584 537 581 537 573 C538 566 536 562 530 562 C525 563 520 563 514 562 C499 562 485 561 470 560 C456 560 441 559 425 557 C422 557 420 558 416 556 C413 555 409 554 404 552 C402 512 400 472 397 431 C395 391 392 349 388 307 C396 307 402 307 408 306 C415 306 421 306 427 306 C449 308 470 308 490 309 C511 311 532 312 553 313 C557 313 560 314 564 313 C568 313 572 312 575 311 C577 304 577 300 573 297 C570 295 566 293 562 293 C554 293 545 292 537 292 C529 293 521 293 513 293 C497 292 481 291 465 290 C449 290 433 289 417 288 C403 287 394 285 390 281 C386 278 384 269 383 254 C381 220 380 188 378 154 C376 121 374 87 372 53 C372 48 372 43 372 36 C372 30 368 27 360 27 C352 27 348 31 347 37 C347 44 346 50 346 55 C347 66 348 76 349 86 C351 97 352 108 352 118 C354 140 356 161 357 182 C359 204 360 225 361 246 C361 248 361 248 361 250 C362 252 362 254 362 255 C362 267 361 274 357 277 C354 281 347 282 335 282 C329 282 322 282 315 281 C309 281 302 280 295 279 C295 279 163 270 163 270 C158 270 154 270 148 269 C143 269 137 268 131 266 C131 263 131 260 129 257 C128 255 127 252 127 249 C125 215 122 181 120 146 C118 112 116 77 114 42 C114 37 113 32 112 26 C112 20 111 15 109 9 C109 7 107 6 104 4 C102 2 99 1 96 0 C95 0 94 2 92 4 C90 7 89 9 88 11 C87 13 86 16 86 18 C87 21 88 24 88 26 C91 58 94 90 96 122 C99 154 102 186 104 218 C106 225 107 232 106 239 C106 247 105 255 105 264 L105 264 Z " />
<glyph glyph-name="dollar" unicode="&#x24;" horiz-adv-x="202" d="M71 0 C71 0 71 0 71 0 C71 13 71 25 71 36 C72 48 73 59 73 70 C62 76 52 82 43 89 C35 97 28 107 24 119 C21 130 19 140 16 150 C14 161 15 172 19 183 C23 182 25 181 25 178 C26 176 27 173 27 169 C29 161 30 152 31 143 C33 135 35 126 38 117 C42 106 48 98 57 92 C67 87 76 86 85 88 C94 92 101 96 105 101 C113 109 119 118 123 128 C127 138 130 149 131 160 C135 177 136 193 136 209 C137 226 136 243 132 260 C126 296 117 328 104 360 C92 392 78 424 62 456 C57 466 53 475 49 485 C46 495 43 505 39 515 C35 531 30 547 26 563 C22 579 19 595 15 611 C12 627 10 642 8 658 C6 674 5 690 3 706 C1 740 7 772 22 804 C26 812 31 818 36 824 C42 830 48 835 56 838 C66 842 70 848 68 856 C68 862 68 866 68 870 C69 875 69 880 69 885 C79 884 84 882 86 878 C88 874 90 865 90 849 C100 846 108 842 116 836 C125 830 132 822 137 812 C141 802 141 792 137 781 C133 783 130 785 130 788 C130 792 130 795 129 798 C127 814 119 824 103 829 C101 831 99 831 97 831 C91 830 86 829 79 828 C73 828 67 826 61 823 C51 819 43 810 36 796 C20 765 15 733 19 699 C21 687 22 675 22 662 C22 650 24 638 27 626 C33 603 38 580 44 556 C51 533 58 510 65 486 C69 474 74 461 80 449 C87 437 93 425 99 412 C108 396 115 379 122 361 C130 344 136 326 140 307 C144 290 148 273 151 254 C155 236 155 217 151 197 C150 187 150 177 148 167 C147 157 145 147 142 137 C136 111 121 91 97 77 C91 73 87 68 87 61 C87 55 88 50 87 44 C87 38 86 32 85 26 C85 21 85 16 83 12 C82 8 78 4 71 0 L71 0 Z " />
<glyph glyph-name="percent" unicode="&#x25;" horiz-adv-x="442" d="M76 3 C76 3 76 3 76 3 C74 9 74 14 75 20 C77 26 78 32 80 37 C88 65 95 92 103 118 C111 145 119 172 126 198 C138 241 149 283 161 325 C173 368 186 410 198 452 C215 512 231 570 248 628 C266 687 283 746 300 805 C300 805 312 853 312 853 C314 857 314 859 314 861 C315 864 316 867 317 869 C319 871 319 871 321 873 C323 875 325 876 325 875 C331 873 333 869 333 865 C333 861 333 858 331 853 C330 849 329 844 327 840 C318 810 309 780 299 749 C290 719 281 688 271 657 C263 629 254 602 246 575 C238 549 231 521 223 493 C223 493 148 220 148 220 C139 187 131 154 121 121 C112 89 103 56 93 22 C92 18 90 15 88 11 C86 7 84 4 82 0 C82 0 76 3 76 3 L76 3 Z M253 115 C253 115 253 115 253 115 C255 106 255 99 255 92 C255 86 256 79 257 73 C263 45 281 29 312 23 C325 21 335 25 343 36 C359 58 368 79 374 103 C380 127 382 152 380 177 C379 191 373 202 363 211 C353 221 342 225 329 225 C315 225 303 223 292 215 C282 208 274 197 270 183 C266 172 264 160 261 148 C259 136 256 125 253 115 L253 115 Z M235 113 C235 113 235 113 235 113 C238 125 240 135 242 145 C244 156 247 167 249 178 C253 195 260 208 270 217 C280 227 294 232 312 234 C335 237 353 235 365 227 C378 219 387 204 393 182 C395 174 397 166 396 157 C396 149 395 140 394 132 C393 116 390 100 386 84 C382 68 376 53 366 38 C357 23 347 14 337 10 C327 6 314 7 296 11 C260 21 241 48 238 92 C238 92 238 112 238 112 C238 113 237 113 235 113 L235 113 Z M18 743 C18 743 18 743 18 743 C19 734 19 727 19 720 C20 714 21 707 22 701 C25 686 31 675 40 667 C50 659 62 654 76 651 C84 650 89 650 94 652 C100 655 104 659 108 664 C124 686 133 707 139 731 C145 755 147 780 144 805 C143 819 138 830 128 839 C118 849 107 853 94 853 C80 853 68 851 57 843 C47 836 39 826 35 812 C31 800 28 788 25 776 C23 764 20 753 18 743 L18 743 Z M0 741 C0 741 0 741 0 741 C3 753 5 763 7 773 C9 784 12 795 14 806 C22 840 43 858 77 862 C100 865 118 863 130 855 C143 847 152 832 158 810 C160 802 162 794 161 785 C161 777 160 768 158 760 C157 744 154 728 150 712 C146 696 140 681 130 666 C121 651 112 642 102 638 C92 634 79 635 61 639 C25 649 6 676 3 720 C3 724 2 727 2 730 C3 734 3 737 3 740 C3 741 2 741 0 741 L0 741 Z " />
<glyph glyph-name="ampersand" unicode="&#x26;" horiz-adv-x="328" d="M110 592 C110 592 110 592 110 592 C110 592 114 592 114 592 C115 594 116 595 116 595 C117 596 117 597 117 597 C130 634 141 671 151 707 C162 744 169 782 171 821 C173 829 174 837 172 845 C171 854 168 862 162 869 C153 869 146 867 140 863 C134 859 129 854 124 846 C116 832 109 819 104 803 C100 788 98 772 99 754 C101 737 102 721 102 704 C103 688 104 671 105 654 C106 644 107 634 107 623 C108 613 109 602 110 592 L110 592 Z M97 465 C97 465 97 465 97 465 C97 465 92 465 92 465 C91 463 91 462 89 459 C88 457 87 454 85 451 C79 433 73 416 67 398 C61 380 56 362 50 343 C46 330 43 317 39 302 C35 288 32 273 30 259 C24 208 27 158 39 108 C42 98 44 89 48 79 C52 70 56 61 60 51 C72 26 91 13 119 13 C123 13 127 14 131 13 C136 13 141 13 145 13 C155 14 163 17 171 23 C179 29 185 37 189 45 C194 54 197 62 197 72 C198 82 196 91 191 99 C173 133 158 166 144 201 C131 237 121 273 115 311 C112 333 110 353 108 375 C106 397 104 419 101 441 C101 445 100 449 99 453 C99 457 98 461 97 465 L97 465 Z M204 119 C204 119 204 119 204 119 C208 127 209 138 209 152 C210 166 209 182 207 199 C205 217 202 234 198 254 C194 274 189 294 183 314 C195 318 201 314 203 301 C203 301 221 196 221 196 C224 179 225 162 225 145 C225 129 224 112 220 95 C220 89 222 83 226 77 C237 63 251 54 268 52 C272 52 277 51 283 49 C283 39 279 34 269 35 C264 37 260 37 254 38 C249 40 244 41 238 43 C234 45 231 48 227 50 C224 53 220 56 215 59 C215 59 209 47 209 47 C195 15 171 0 137 1 C128 1 119 2 110 2 C102 3 93 6 84 10 C72 16 63 22 56 32 C50 42 44 53 38 63 C25 95 16 126 10 158 C5 190 5 223 10 256 C13 272 17 287 21 302 C26 318 30 333 34 348 C42 376 50 403 58 431 C66 459 75 487 84 514 C89 528 92 541 92 555 C93 569 93 583 91 597 C89 627 87 657 85 685 C83 714 82 743 81 773 C81 791 83 808 90 824 C98 841 108 856 120 869 C127 876 134 880 142 882 C165 890 179 882 184 858 C186 852 187 845 187 838 C188 832 188 825 187 817 C184 791 181 765 177 739 C173 713 167 688 157 662 C151 644 145 627 138 609 C132 591 126 573 120 555 C116 539 114 520 116 499 C121 443 127 389 133 333 C140 278 154 224 176 171 C180 164 182 156 186 148 C190 140 194 132 198 124 C199 124 201 122 204 119 L204 119 Z " />
<glyph glyph-name="quotesingle" unicode="&#x27;" horiz-adv-x="115" d="M0 751 C0 751 0 751 0 751 C24 759 39 771 45 789 C51 807 53 828 49 852 C55 849 59 846 62 844 C66 842 68 841 68 839 C69 831 69 824 69 815 C69 807 68 798 66 790 C61 771 54 759 44 753 C34 747 20 747 0 751 L0 751 Z " />
<glyph glyph-name="parenleft" unicode="&#x28;" horiz-adv-x="211" d="M166 17 C166 17 166 17 166 17 C164 10 161 6 156 4 C152 2 147 3 143 6 C137 10 132 15 126 19 C120 24 115 29 109 34 C97 50 87 65 77 82 C68 100 60 118 53 136 C44 162 36 187 28 212 C20 238 15 264 11 291 C8 321 6 350 4 379 C3 409 4 438 8 468 C12 498 15 527 17 556 C20 586 24 615 29 644 C37 680 45 716 55 750 C65 785 80 818 99 850 C105 860 112 868 120 875 C130 885 141 885 153 873 C135 869 122 861 114 847 C106 834 99 820 93 805 C77 764 64 722 54 680 C44 638 38 595 35 551 C34 529 33 506 30 484 C28 462 26 440 24 417 C24 402 23 388 25 372 C27 357 29 342 30 326 C32 310 33 295 35 278 C37 262 40 246 44 230 C52 200 61 171 71 142 C82 114 96 86 113 60 C120 50 126 41 134 33 C142 25 153 20 166 17 L166 17 Z " />
<glyph glyph-name="parenright" unicode="&#x29;" horiz-adv-x="173" d="M3 878 C3 878 3 878 3 878 C13 882 20 884 28 882 C36 880 44 877 51 873 C70 863 83 847 91 826 C104 792 112 758 117 724 C123 690 126 656 127 620 C128 597 129 574 127 550 C126 527 126 504 126 480 C128 456 127 433 124 409 C122 386 119 363 115 339 C112 311 110 282 106 253 C103 225 100 196 96 167 C94 145 90 123 84 101 C78 80 69 60 57 40 C51 29 44 19 36 11 C26 1 14 2 0 13 C17 17 28 23 34 34 C40 46 46 57 51 69 C62 95 69 120 73 146 C78 172 82 199 85 225 C90 265 93 304 97 342 C101 381 105 420 107 459 C109 491 110 523 110 555 C111 587 110 619 108 651 C107 681 105 709 99 737 C94 765 86 793 76 821 C66 845 48 860 22 865 C19 866 15 867 11 867 C7 868 5 872 3 878 L3 878 Z " />
<glyph glyph-name="asterisk" unicode="&#x2a;" horiz-adv-x="306" d="M117 798 C117 798 117 798 117 798 C119 813 119 827 119 841 C120 856 121 871 121 885 C122 889 123 892 122 896 C122 901 124 903 130 903 C136 903 138 900 138 896 C138 892 138 888 138 884 C138 867 138 851 137 833 C137 816 136 799 135 781 C135 779 136 776 136 773 C137 771 138 767 138 761 C160 783 179 805 195 829 C212 854 231 877 251 897 C257 891 259 886 257 882 C256 878 254 874 250 870 C236 853 221 836 207 818 C193 801 179 784 164 766 C157 758 153 754 153 750 C154 747 158 741 165 733 C179 718 192 704 206 688 C220 673 235 658 249 642 C252 640 253 637 254 634 C256 632 255 628 251 623 C241 631 232 638 222 648 C213 658 204 668 195 678 C187 689 178 699 168 709 C159 719 149 729 137 737 C136 731 135 726 134 721 C134 717 133 713 133 709 C133 695 132 681 132 667 C132 653 132 640 131 626 C131 621 129 616 125 610 C117 624 113 638 115 652 C117 667 117 682 115 697 C105 690 97 682 89 672 C82 662 75 653 67 643 C65 640 62 637 60 633 C58 630 56 627 52 623 C51 622 50 622 47 621 C45 621 42 620 40 619 C40 622 41 625 39 627 C38 630 38 632 39 633 C46 643 52 651 58 659 C65 667 72 676 79 684 C85 691 90 697 94 703 C99 709 104 716 108 722 C121 741 120 759 106 777 C101 784 97 790 91 796 C86 802 81 808 75 814 C64 827 53 839 41 851 C30 864 19 877 7 889 C6 891 6 891 4 893 C3 895 2 897 0 898 C4 904 6 906 9 904 C13 903 16 901 18 897 C26 889 32 881 39 872 C47 864 54 855 61 846 C73 834 84 821 95 809 C98 807 101 804 103 802 C106 800 109 798 112 795 C115 797 117 798 117 798 L117 798 Z " />
<glyph glyph-name="plus" unicode="&#x2b;" horiz-adv-x="306" d="M127 469 C127 469 127 469 127 469 C128 443 128 418 128 392 C128 367 129 342 129 316 C129 311 129 306 129 300 C129 295 126 291 120 287 C115 290 112 293 112 297 C113 302 113 306 113 309 C113 332 113 354 113 376 C113 398 114 421 114 443 C114 443 114 454 114 454 C114 462 112 466 110 468 C108 470 103 471 95 471 C95 471 26 468 26 468 C22 468 18 468 13 468 C9 469 4 472 0 478 C2 480 4 481 6 482 C8 484 10 484 12 484 C22 485 31 485 39 485 C48 485 57 486 65 486 C73 486 80 486 88 486 C96 487 105 487 113 487 C114 497 114 505 114 513 C115 522 115 531 115 539 C115 553 116 566 115 580 C115 594 114 608 114 622 C114 626 114 630 114 634 C114 639 115 643 115 647 C115 656 120 658 130 654 C130 627 130 601 130 573 C130 546 130 518 129 489 C136 489 142 489 146 488 C151 488 156 488 160 488 C174 488 187 488 200 488 C214 489 227 490 240 490 C247 490 252 490 254 489 C256 489 257 488 258 486 C260 485 261 484 261 482 C261 481 261 480 259 478 C258 476 257 475 255 474 C252 473 249 472 246 472 C244 472 241 472 237 472 C221 472 206 471 190 471 C174 471 158 471 142 471 C140 471 138 472 136 471 C134 471 131 470 127 469 L127 469 Z " />
<glyph glyph-name="comma" unicode="&#x2c;" horiz-adv-x="121" d="M0 25 C0 25 0 25 0 25 C6 25 9 25 11 23 C23 18 31 16 39 19 C47 23 53 30 56 42 C60 56 61 69 62 83 C64 97 63 111 60 124 C59 131 60 138 62 144 C64 143 65 142 67 140 C69 138 71 136 71 134 C73 126 74 119 74 111 C75 103 75 95 75 87 C76 80 77 73 75 65 C74 58 73 51 71 43 C70 33 67 25 59 17 C52 10 43 5 33 3 C19 1 8 8 0 25 L0 25 Z " />
<glyph glyph-name="hyphen" unicode="&#x2d;" horiz-adv-x="293" d="M248 467 C248 467 248 467 248 467 C242 465 237 463 233 463 C203 463 175 463 145 463 C116 464 87 465 57 465 C51 465 44 466 38 465 C32 465 26 465 20 465 C17 465 15 466 11 466 C8 467 5 468 2 468 C1 474 2 477 4 478 C7 480 10 480 13 480 C13 480 54 480 54 480 C84 480 113 479 143 479 C173 479 203 479 233 478 C236 478 238 478 240 476 C243 475 246 474 248 473 C248 473 248 467 248 467 L248 467 Z " />
<glyph glyph-name="period" unicode="&#x2e;" horiz-adv-x="135" d="M22 57 C22 57 22 57 22 57 C24 52 26 47 27 42 C29 38 31 33 33 29 C38 22 44 18 50 18 C57 19 63 23 68 30 C73 38 76 47 75 59 C75 72 72 82 66 89 C61 97 56 100 48 100 C41 100 35 96 31 88 C29 84 28 79 26 73 C25 68 24 63 22 57 L22 57 Z M90 73 C90 73 90 73 90 73 C89 66 88 59 87 52 C87 46 86 39 84 32 C83 23 80 16 74 12 C69 8 63 5 55 3 C48 2 41 3 35 6 C29 10 24 14 19 19 C15 25 12 32 10 40 C8 49 7 58 8 66 C10 75 11 82 15 90 C19 98 24 105 30 109 C34 111 37 113 41 114 C45 116 49 117 53 118 C63 121 70 118 74 108 C77 103 80 97 82 91 C85 85 88 79 90 73 L90 73 Z " />
<glyph glyph-name="slash" unicode="&#x2f;" horiz-adv-x="346" d="M299 892 C299 892 299 892 299 892 C301 888 301 885 300 883 C292 857 284 830 274 804 C265 778 256 752 247 726 C227 664 207 602 187 539 C167 477 147 414 126 351 C114 311 102 272 88 232 C75 192 62 152 48 112 C44 97 40 83 36 67 C32 52 28 37 24 21 C23 17 22 13 21 8 C21 4 17 2 10 4 C5 6 2 9 4 13 C6 18 8 22 9 25 C30 89 50 153 70 215 C90 278 111 341 131 405 C147 453 162 500 178 548 C194 596 210 644 225 692 C235 722 243 751 253 781 C263 811 273 841 283 871 C285 875 285 878 287 882 C289 886 291 890 292 894 C296 893 299 892 299 892 L299 892 Z " />
<glyph glyph-name="zero" unicode="0" horiz-adv-x="424" d="M323 723 C323 723 323 723 323 723 C320 741 316 756 310 770 C304 784 297 798 288 810 C282 820 275 829 266 837 C258 845 248 852 236 857 C230 860 225 862 218 861 C212 861 206 860 199 859 C193 859 187 858 180 857 C174 857 167 857 161 859 C161 859 160 859 159 858 C149 853 139 848 129 841 C120 835 112 826 104 815 C84 783 68 751 56 715 C45 680 37 644 32 606 C27 558 23 510 20 460 C18 411 21 362 29 312 C33 290 36 268 39 246 C43 224 48 203 56 181 C64 159 73 137 83 115 C93 94 107 75 124 57 C134 48 144 40 154 31 C165 23 178 18 193 16 C201 16 206 15 212 17 C218 19 224 24 228 30 C230 32 232 34 234 37 C237 41 239 42 241 41 C252 39 259 40 263 46 C268 53 272 59 276 65 C308 113 328 165 338 221 C342 239 345 255 347 272 C350 290 352 307 353 324 C355 340 356 356 355 372 C355 389 354 406 353 422 C353 432 352 442 350 452 C348 463 347 473 347 483 C347 499 347 515 349 531 C351 547 352 563 350 579 C349 605 347 629 343 653 C339 678 333 701 323 723 L323 723 Z M341 718 C341 718 341 718 341 718 C351 695 358 672 360 646 C363 621 366 596 369 570 C375 527 378 485 377 441 C377 398 374 355 370 311 C367 279 362 249 356 217 C350 186 341 155 327 125 C320 111 313 96 305 81 C298 67 289 53 279 40 C259 15 237 2 210 0 C184 -2 159 6 136 24 C113 43 94 64 79 88 C65 112 52 138 42 166 C33 192 26 217 22 243 C18 270 14 297 10 323 C5 356 3 388 3 420 C4 453 5 486 7 518 C9 533 9 547 9 561 C10 576 12 590 14 604 C20 642 29 679 40 715 C52 752 68 787 89 821 C107 847 130 865 159 873 C171 877 183 879 195 879 C208 880 221 878 233 874 C263 865 284 848 297 822 C303 814 307 805 312 797 C318 789 322 781 326 772 C330 764 332 756 334 746 C336 737 339 728 341 718 L341 718 Z " />
<glyph glyph-name="one" unicode="1" horiz-adv-x="310" d="M114 21 C114 21 114 21 114 21 C116 159 119 293 123 427 C127 561 130 696 131 830 C129 830 127 831 125 831 C124 827 123 823 121 819 C119 815 118 811 116 807 C107 775 98 744 88 712 C79 681 70 649 60 617 C58 609 56 605 54 602 C53 600 48 595 40 589 C40 593 40 595 39 598 C39 602 39 605 39 607 C50 641 60 675 70 708 C81 742 92 775 102 809 C104 816 105 823 107 829 C109 836 111 843 113 849 C115 853 116 857 118 861 C120 865 122 869 123 873 C137 869 144 866 146 863 C148 861 149 854 149 844 C147 766 145 689 142 611 C140 534 138 456 136 377 C135 322 135 267 134 212 C134 158 133 102 131 46 C131 43 131 40 131 36 C132 32 132 28 132 24 C136 24 138 24 140 23 C143 23 146 22 149 22 C149 22 246 22 246 22 C248 22 248 22 250 22 C252 23 254 23 255 22 C258 22 261 19 265 15 C264 14 262 12 260 10 C258 8 256 7 254 7 C251 6 247 5 243 5 C239 6 236 6 232 6 C198 5 164 5 129 4 C95 4 60 3 24 2 C20 2 16 2 13 1 C10 1 7 1 4 3 C2 5 1 8 1 11 C1 13 3 14 5 16 C8 18 11 19 13 19 C23 20 32 20 42 20 C52 20 62 20 72 20 C79 20 86 20 92 20 C99 21 106 21 114 21 L114 21 Z " />
<glyph glyph-name="two" unicode="2" horiz-adv-x="302" d="M27 21 C27 21 27 21 27 21 C37 21 44 21 51 20 C59 20 66 19 73 19 C101 19 128 18 155 18 C183 18 210 18 238 17 C242 17 245 18 249 17 C253 17 256 13 257 5 C253 5 250 4 246 3 C242 3 239 2 235 2 C201 2 168 2 135 2 C103 2 70 2 36 1 C20 1 10 2 7 6 C5 10 6 20 11 35 C26 76 40 117 54 157 C68 198 85 238 104 276 C106 280 108 284 109 288 C111 292 112 296 113 300 C125 336 136 370 148 405 C160 441 172 476 183 512 C195 547 203 581 210 616 C218 652 220 688 216 725 C216 736 214 746 212 756 C210 767 208 777 205 787 C200 807 189 823 172 833 C172 833 163 839 163 839 C158 843 154 846 148 850 C143 855 138 857 132 856 C117 856 101 850 85 840 C75 835 68 829 60 819 C53 810 47 800 41 789 C40 785 39 782 36 778 C34 774 31 770 27 764 C24 770 23 774 23 778 C24 783 25 787 27 790 C36 810 46 827 59 841 C73 856 90 867 111 874 C133 882 153 878 171 863 C200 841 218 810 225 771 C233 739 235 708 233 676 C231 645 227 613 219 581 C209 539 198 497 183 456 C169 416 154 375 140 333 C138 328 137 324 135 318 C134 313 133 308 131 302 C129 294 126 285 123 277 C121 269 118 261 114 252 C105 230 96 208 87 186 C79 164 70 142 60 119 C55 106 50 94 45 80 C41 67 36 54 31 40 C30 38 29 35 29 32 C29 30 29 26 27 21 L27 21 Z " />
<glyph glyph-name="three" unicode="3" horiz-adv-x="256" d="M28 68 C28 68 28 68 28 68 C28 63 27 59 27 55 C27 51 27 48 25 44 C21 23 30 12 52 10 C62 9 69 9 77 13 C85 17 93 22 100 28 C114 42 126 55 136 71 C147 87 155 105 159 124 C171 174 179 222 185 272 C192 322 194 373 192 423 C192 437 191 450 187 463 C184 477 179 489 171 501 C157 523 138 531 112 526 C95 524 83 530 77 546 C83 547 87 548 91 548 C96 549 101 550 106 550 C114 550 121 552 125 556 C130 560 134 565 138 570 C182 640 194 716 174 796 C170 814 161 830 145 843 C130 857 115 863 99 861 C87 860 76 858 63 854 C51 851 38 848 26 844 C23 844 20 842 16 839 C13 837 10 838 6 843 C3 848 3 851 7 853 C11 855 15 857 18 858 C44 875 72 883 103 881 C111 881 117 880 124 876 C132 872 138 868 144 864 C162 852 173 837 181 819 C189 802 195 783 197 763 C201 733 202 705 196 677 C191 650 182 623 169 595 C165 587 162 578 157 570 C153 562 148 554 143 544 C167 532 182 515 191 495 C201 475 206 453 207 428 C208 408 209 388 209 368 C210 348 209 328 207 308 C205 284 203 261 199 237 C195 213 191 189 186 165 C182 143 176 119 166 93 C160 77 152 63 140 49 C129 35 117 23 103 11 C91 1 78 -4 62 -5 C47 -5 34 -1 22 7 C11 15 5 25 6 35 C8 46 15 57 28 68 L28 68 Z " />
<glyph glyph-name="four" unicode="4" horiz-adv-x="332" d="M117 884 C126 881 130 877 130 872 C130 868 130 863 129 858 C125 839 121 820 117 801 C113 783 110 764 106 744 C98 696 89 650 81 602 C73 555 65 507 57 459 C51 424 46 389 40 354 C34 320 29 285 23 249 C22 242 21 235 20 227 C20 220 19 212 18 204 C22 204 24 203 26 202 C29 202 32 201 35 201 C71 201 105 201 140 201 C176 202 211 202 247 202 C250 202 252 203 255 203 C259 204 262 205 266 205 C266 205 266 272 266 272 C266 284 267 294 266 306 C266 318 265 330 264 341 C264 347 266 349 268 350 C271 352 275 353 280 353 C281 349 281 345 282 341 C284 337 284 333 284 329 C284 299 283 269 282 239 C282 209 281 179 281 149 C281 130 282 111 283 91 C285 72 286 53 286 33 C287 27 287 20 285 14 C284 8 279 3 271 -1 C267 10 265 20 267 30 C269 40 270 50 268 60 C268 70 267 79 267 89 C268 99 268 109 268 119 C268 130 269 140 268 150 C268 160 267 171 266 182 C263 184 261 185 257 185 C254 186 251 186 248 186 C212 185 177 185 142 184 C108 184 72 183 36 181 C29 181 23 182 17 184 C11 186 6 191 0 197 C40 425 79 654 117 884 L117 884 Z " />
<glyph glyph-name="five" unicode="5" horiz-adv-x="396" d="M35 96 C35 96 35 96 35 96 C34 91 34 86 32 82 C31 78 30 75 28 71 C25 62 24 53 24 45 C25 37 29 30 37 22 C43 17 52 14 62 13 C73 13 83 15 91 20 C98 24 103 27 106 31 C113 37 119 43 125 49 C132 55 138 61 144 67 C158 81 168 96 174 114 C176 120 179 127 182 133 C210 179 229 230 240 285 C246 315 250 345 250 373 C251 402 248 431 241 461 C233 503 212 534 178 554 C169 560 158 563 145 564 C118 568 92 563 67 551 C59 547 55 546 51 547 C48 549 46 554 46 562 C46 581 46 599 46 617 C47 636 47 655 47 673 C47 673 47 858 47 858 C47 862 47 864 47 867 C47 871 48 874 48 878 C98 876 148 875 198 878 C248 882 298 883 348 881 C350 874 349 871 345 869 C342 868 339 867 335 867 C320 867 305 867 289 867 C273 867 258 867 242 866 C214 865 187 865 159 863 C132 862 104 861 76 859 C75 859 74 860 72 859 C70 859 68 858 64 857 C61 809 60 762 60 714 C61 666 62 618 64 569 C78 572 91 575 104 578 C115 581 125 582 135 581 C146 581 156 579 166 577 C173 576 179 574 183 570 C225 543 251 505 259 456 C268 411 270 367 264 323 C259 279 248 236 230 194 C223 177 216 160 208 143 C200 127 192 110 184 94 C174 77 163 62 150 50 C142 42 135 35 125 27 C116 19 106 13 96 7 C76 -4 59 -6 43 1 C28 9 16 23 7 44 C4 53 5 62 10 72 C16 83 24 91 35 96 L35 96 Z " />
<glyph glyph-name="six" unicode="6" horiz-adv-x="333" d="M24 211 C24 211 24 211 24 211 C26 199 27 187 29 175 C31 163 34 151 37 139 C41 123 46 110 50 98 C55 87 60 77 66 67 C73 58 81 49 89 41 C98 33 109 25 121 15 C123 14 124 13 126 13 C128 14 130 14 132 13 C132 20 132 23 136 21 C140 20 143 19 145 19 C161 19 175 25 187 36 C203 50 214 64 224 81 C234 99 242 117 248 136 C254 156 258 175 261 195 C265 215 267 236 268 256 C271 292 269 327 262 360 C256 394 241 425 218 455 C208 469 196 481 184 492 C172 504 158 513 142 520 C133 524 124 528 114 530 C104 533 94 534 82 532 C72 531 66 530 63 527 C61 525 58 518 56 507 C54 494 51 481 48 468 C46 456 43 443 40 429 C38 422 37 415 34 408 C32 402 30 395 29 387 C27 358 26 330 23 300 C21 271 21 241 24 211 L24 211 Z M247 872 C247 872 247 872 247 872 C245 866 240 864 232 866 C224 868 217 869 210 865 C204 862 197 858 191 852 C176 840 164 826 154 810 C144 794 135 778 126 761 C111 733 100 704 90 674 C81 644 73 614 65 582 C64 577 63 573 63 568 C63 564 63 559 62 553 C68 551 71 550 73 550 C105 552 134 547 159 534 C185 522 206 503 224 477 C237 459 249 441 259 422 C270 404 277 383 280 360 C288 309 289 257 281 203 C278 180 273 158 266 136 C260 115 251 94 239 73 C231 60 223 49 211 37 C200 26 188 16 174 6 C163 -1 153 -5 141 -5 C130 -5 118 -2 106 2 C87 10 72 22 61 36 C51 51 42 67 35 85 C19 129 11 172 7 216 C4 260 4 305 8 351 C10 361 11 371 11 381 C12 392 13 402 14 412 C20 454 27 493 36 533 C46 573 55 613 64 653 C70 677 76 698 86 720 C96 742 107 764 117 785 C125 803 135 817 147 831 C160 845 173 859 187 871 C195 878 204 882 215 881 C227 881 237 878 247 872 L247 872 Z " />
<glyph glyph-name="seven" unicode="7" horiz-adv-x="333" d="M269 864 C269 864 269 864 269 864 C262 866 255 866 249 867 C243 869 238 869 232 868 C197 868 163 867 127 866 C92 866 56 865 20 864 C16 864 12 863 8 863 C4 864 2 868 0 876 C3 877 5 877 7 878 C9 880 12 880 14 880 C32 881 48 881 65 881 C83 881 100 882 117 882 C140 882 162 882 184 882 C207 883 230 883 252 883 C255 884 260 884 266 884 C282 884 288 877 285 861 C284 853 283 845 280 836 C278 828 275 819 273 810 C263 761 254 712 244 663 C234 615 224 566 214 517 C207 483 201 448 193 414 C186 380 179 346 171 312 C166 284 162 256 156 228 C151 200 146 172 140 144 C136 124 133 104 129 84 C126 64 123 45 119 25 C119 21 118 17 116 12 C115 8 111 5 105 3 C105 9 105 23 109 48 C113 74 119 105 126 144 C134 184 141 228 151 277 C161 327 172 378 183 432 C199 504 212 576 226 647 C240 719 255 791 269 864 L269 864 Z " />
<glyph glyph-name="eight" unicode="8" horiz-adv-x="357" d="M58 651 C58 651 58 651 58 651 C60 646 60 641 61 635 C63 629 64 624 66 618 C70 610 73 603 77 595 C81 587 85 580 89 572 C101 552 117 535 137 521 C156 509 173 509 187 523 C200 535 211 547 221 561 C232 575 240 591 245 608 C260 654 269 699 271 743 C272 758 272 772 269 786 C267 800 262 814 254 827 C246 846 231 857 209 861 C195 864 181 864 167 861 C153 859 140 855 127 849 C95 835 74 811 66 777 C61 757 58 737 56 715 C54 694 55 673 58 651 L58 651 Z M281 360 C281 360 281 360 281 360 C276 372 272 383 267 396 C263 410 257 423 250 435 C238 462 218 480 190 488 C182 492 175 491 169 485 C163 479 156 473 149 467 C143 461 137 455 131 447 C119 430 107 412 95 394 C84 376 73 358 61 339 C20 269 10 196 30 119 C34 105 39 92 45 79 C52 67 60 55 70 44 C81 34 93 27 106 22 C120 18 132 16 146 17 C160 19 174 21 186 27 C199 33 210 41 218 49 C232 63 243 78 252 94 C262 111 269 129 274 148 C279 166 282 183 284 201 C287 219 288 238 286 256 C286 273 287 290 285 306 C284 323 283 341 281 360 L281 360 Z M194 507 C194 507 194 507 194 507 C204 500 212 494 220 488 C229 483 237 477 244 469 C256 459 266 446 272 432 C279 418 284 404 287 388 C297 349 302 310 304 270 C307 230 304 190 294 150 C292 140 288 129 282 119 C277 109 272 99 266 89 C263 83 259 78 255 72 C251 66 247 61 243 55 C230 35 214 21 195 13 C177 5 156 2 132 3 C108 5 88 10 72 22 C56 34 43 51 31 72 C9 115 0 160 3 208 C5 228 8 246 12 264 C17 283 24 301 33 318 C49 348 66 376 83 404 C101 432 121 459 143 484 C145 486 145 486 147 487 C149 489 151 490 152 491 C143 498 135 504 126 510 C118 516 109 522 101 527 C88 537 78 547 70 559 C63 572 57 586 51 600 C46 616 42 631 38 647 C34 663 33 680 34 696 C36 720 38 742 41 766 C45 790 55 812 73 832 C83 844 94 853 105 860 C117 868 130 872 145 874 C153 876 161 877 169 878 C177 880 185 880 192 879 C233 877 260 857 274 818 C280 804 283 790 285 776 C287 762 287 748 285 732 C283 709 280 687 275 663 C271 640 264 617 255 595 C250 581 244 569 236 556 C229 544 220 532 208 522 C205 520 202 517 200 514 C198 512 196 509 194 507 L194 507 Z " />
<glyph glyph-name="nine" unicode="9" horiz-adv-x="307" d="M134 852 C134 852 134 852 134 852 C134 852 133 852 133 852 C118 844 105 833 95 820 C85 808 77 794 70 778 C63 759 56 740 49 720 C43 700 36 681 28 661 C26 657 25 653 25 649 C22 627 20 605 21 583 C23 561 26 539 30 517 C34 502 39 489 45 475 C52 462 64 452 81 444 C102 436 120 432 136 435 C152 439 168 449 183 466 C201 486 213 511 218 539 C219 542 220 544 220 548 C221 552 222 554 223 554 C233 556 238 559 238 565 C239 571 240 577 241 583 C245 605 247 627 245 649 C244 671 243 693 241 715 C240 730 239 744 236 758 C234 772 231 787 228 801 C224 819 215 835 200 847 C188 859 173 863 157 857 C153 856 149 855 145 854 C141 854 138 853 134 852 L134 852 Z M113 111 C113 111 113 111 113 111 C111 99 111 86 112 74 C114 62 118 51 124 39 C134 24 147 16 163 14 C180 12 193 19 203 34 C213 48 218 62 220 78 C222 96 224 112 224 130 C225 148 226 166 226 183 C228 223 228 263 228 302 C229 342 230 381 231 421 C231 432 231 443 231 453 C232 464 232 475 232 486 C232 490 233 492 232 495 C232 499 231 502 230 505 C226 503 223 501 221 497 C220 493 218 490 216 486 C211 475 205 465 197 456 C190 448 181 440 169 433 C152 424 136 419 119 420 C103 422 86 427 68 435 C56 442 46 450 38 460 C31 470 25 482 21 495 C13 523 8 550 6 577 C4 605 6 632 11 659 C18 692 27 724 39 754 C51 785 69 814 91 840 C111 863 136 876 164 880 C177 882 188 880 196 872 C221 854 237 829 245 798 C251 779 254 760 255 740 C257 720 258 701 259 681 C261 659 260 636 258 614 C256 592 254 570 251 547 C249 529 249 512 248 493 C248 475 247 456 247 438 C246 389 246 340 245 291 C245 243 244 193 242 143 C242 130 242 117 240 104 C239 92 238 79 236 65 C234 47 225 31 211 18 C197 6 181 0 162 1 C156 2 149 3 142 6 C136 10 130 13 124 17 C117 22 112 27 107 35 C103 43 101 51 99 60 C98 70 98 78 100 87 C103 97 107 105 113 111 L113 111 Z " />
<glyph glyph-name="colon" unicode="&#x3a;" horiz-adv-x="140" d="M25 411 C25 411 25 411 25 411 C26 408 26 404 26 399 C27 395 28 390 30 385 C32 382 34 380 36 376 C39 373 42 371 44 370 C48 370 50 370 54 372 C58 374 62 377 64 379 C70 385 72 392 73 402 C75 413 73 422 68 430 C66 436 63 440 59 445 C56 451 51 453 44 452 C37 451 33 447 31 441 C29 435 28 429 26 423 C26 422 26 421 26 419 C26 417 26 415 25 411 L25 411 Z M90 410 C90 410 90 410 90 410 C89 400 88 392 84 383 C81 375 76 367 68 360 C61 355 52 352 41 353 C31 355 24 360 20 368 C14 382 11 395 8 409 C6 423 8 438 15 452 C21 463 27 468 35 470 C44 472 53 470 62 462 C70 455 76 448 81 439 C87 431 90 421 90 410 L90 410 Z M81 64 C81 64 81 64 81 64 C81 74 80 81 76 88 C72 96 68 103 62 109 C60 113 58 115 55 117 C53 119 50 122 46 124 C44 121 41 118 38 115 C36 113 33 110 30 106 C30 106 29 106 29 104 C29 103 29 102 28 100 C26 88 26 77 29 65 C33 54 37 43 41 31 C43 26 46 23 51 23 C57 23 62 25 66 28 C72 34 75 39 77 45 C79 52 81 58 81 64 L81 64 Z M95 53 C95 53 95 53 95 53 C95 39 91 27 83 17 C75 9 64 5 51 6 C39 8 30 14 25 25 C20 39 15 52 11 66 C7 81 8 96 12 111 C15 119 19 125 24 131 C30 138 35 142 41 143 C53 144 64 136 73 119 C78 111 82 103 86 95 C91 87 94 79 94 69 C94 67 94 64 94 61 C95 59 95 56 95 53 L95 53 Z " />
<glyph glyph-name="semicolon" unicode="&#x3b;" horiz-adv-x="146" d="M66 145 C69 143 71 141 71 139 C81 116 82 93 75 70 C69 48 55 29 35 13 C30 10 25 7 19 5 C14 3 8 4 0 7 C3 11 5 14 7 14 C51 38 68 75 58 123 C58 127 58 129 58 133 C59 137 59 141 59 144 C61 145 63 145 66 145 L66 145 Z M25 427 C25 427 25 427 25 427 C27 424 27 420 28 416 C30 412 31 408 33 403 C37 395 43 391 53 392 C60 394 65 397 71 404 C77 412 80 419 79 426 C79 441 71 451 55 456 C41 462 31 458 27 446 C27 444 26 442 26 438 C26 435 26 431 25 427 L25 427 Z M10 427 C10 427 10 427 10 427 C9 445 11 459 19 468 C27 478 38 483 51 483 C53 483 55 483 57 483 C60 483 62 483 64 481 C72 478 77 472 81 464 C86 456 88 448 90 438 C92 429 93 421 91 411 C89 402 86 394 80 388 C69 375 58 370 46 374 C34 378 26 386 20 396 C17 402 16 407 14 413 C13 419 12 424 10 427 L10 427 Z " />
<glyph glyph-name="less" unicode="&#x3c;" horiz-adv-x="254" d="M0 498 C0 498 0 498 0 498 C28 526 56 553 83 579 C111 605 136 633 160 662 C166 658 168 655 168 651 C169 648 167 644 162 639 C150 626 137 614 124 601 C112 589 99 576 86 563 C76 553 67 543 57 533 C47 523 37 513 26 501 C37 493 47 486 57 478 C67 470 77 463 87 455 C97 448 106 442 116 434 C126 427 136 420 146 412 C156 404 166 398 177 392 C189 386 199 378 209 368 C200 366 193 366 186 368 C180 371 174 374 168 378 C147 394 126 408 104 424 C83 440 62 456 40 471 C34 476 28 480 21 484 C15 488 8 493 0 498 L0 498 Z " />
<glyph glyph-name="equal" unicode="&#x3d;" horiz-adv-x="342" d="M283 559 C283 559 283 559 283 559 C275 559 266 560 258 559 C250 559 242 559 233 559 C201 560 170 560 137 560 C105 561 72 562 40 562 C40 562 26 562 26 562 C23 563 20 564 16 565 C13 567 11 569 11 573 C12 579 14 582 17 582 C21 583 24 583 27 582 C32 582 36 583 40 582 C45 582 50 581 54 581 C88 580 120 579 152 578 C185 578 218 577 250 576 C254 576 257 577 261 576 C265 576 269 575 273 575 C281 575 284 570 283 559 L283 559 Z M0 439 C0 439 0 439 0 439 C0 439 21 439 21 439 C63 439 105 439 146 438 C188 438 229 437 271 435 C276 435 280 436 284 434 C288 433 293 432 297 430 C295 423 292 419 288 418 C284 418 280 417 276 417 C267 418 259 418 249 418 C240 418 231 419 221 419 C202 420 183 421 163 421 C143 422 124 423 104 423 C91 423 78 424 64 422 C51 421 38 420 24 420 C16 420 11 420 9 422 C7 424 4 430 0 439 L0 439 Z " />
<glyph glyph-name="greater" unicode="&#x3e;" horiz-adv-x="205" d="M0 385 C0 385 0 385 0 385 C4 390 7 394 10 398 C14 403 17 408 20 412 C39 434 58 455 76 477 C95 499 114 521 132 543 C134 545 135 546 135 547 C136 549 137 551 139 553 C118 573 97 592 75 612 C53 632 31 652 9 672 C13 677 15 680 17 678 C20 677 23 675 25 673 C35 666 43 659 51 651 C60 643 69 636 77 628 C91 617 104 607 116 596 C129 586 142 575 154 563 C156 562 157 561 157 558 C158 556 159 554 160 552 C151 542 143 533 134 523 C126 513 117 503 108 493 C99 484 90 474 82 464 C74 454 66 445 56 435 C48 426 41 417 34 405 C28 394 18 386 6 380 C5 381 3 383 0 385 L0 385 Z " />
<glyph glyph-name="question" unicode="&#x3f;" horiz-adv-x="188" d="M108 107 C108 107 108 107 108 107 C101 112 98 117 96 121 C95 126 95 131 95 136 C96 148 96 158 96 170 C97 182 98 194 99 205 C104 247 106 289 106 331 C106 374 107 416 108 458 C110 494 111 530 113 566 C115 602 117 638 119 674 C121 698 121 720 122 743 C124 767 122 790 116 813 C115 817 114 821 113 825 C113 829 111 833 109 836 C100 853 89 862 77 863 C65 865 53 859 40 845 C37 842 35 839 32 834 C30 830 27 826 23 822 C20 818 16 815 12 814 C8 814 4 816 0 822 C5 830 9 836 13 842 C17 849 22 856 27 862 C37 874 48 881 61 883 C75 885 87 882 99 873 C117 861 128 845 131 824 C134 808 135 792 137 775 C139 759 140 742 140 726 C139 701 138 677 135 651 C133 626 131 601 129 575 C128 547 127 519 127 490 C127 462 127 433 125 404 C124 366 122 328 120 290 C118 252 117 214 115 176 C115 169 114 162 114 154 C114 147 114 140 113 132 C113 129 112 125 111 121 C111 117 110 113 108 107 L108 107 Z M96 67 C96 67 96 67 96 67 C92 59 90 54 88 49 C87 45 88 40 90 35 C92 32 94 29 96 26 C99 24 102 22 104 22 C110 22 112 22 114 26 C116 30 118 34 118 38 C119 42 119 44 118 48 C118 52 115 55 110 56 C108 58 106 59 104 61 C102 63 100 65 96 67 L96 67 Z M68 44 C68 44 68 44 68 44 C70 49 71 53 71 57 C72 61 73 65 74 69 C80 87 92 90 108 79 C114 75 120 71 125 65 C130 61 133 57 134 50 C136 44 136 37 134 31 C133 25 130 21 126 15 C122 10 117 6 111 4 C100 0 91 3 84 13 C81 18 79 23 76 28 C74 34 71 39 68 44 L68 44 Z " />
<glyph glyph-name="at" unicode="&#x40;" horiz-adv-x="386" d="M212 557 C212 557 212 557 212 557 C212 557 211 557 211 557 C210 565 209 572 207 579 C206 587 205 594 205 601 C205 619 203 634 195 647 C188 661 179 673 169 684 C161 692 154 696 146 698 C138 700 130 698 122 690 C117 686 113 681 108 675 C104 670 100 664 97 656 C78 602 67 548 64 492 C62 436 69 379 85 320 C89 306 95 293 101 280 C108 268 117 257 127 248 C143 236 156 231 167 235 C179 239 188 249 194 265 C196 269 197 271 198 275 C200 279 201 283 202 286 C210 311 215 336 219 361 C223 387 224 413 222 441 C221 461 219 480 217 499 C215 519 214 538 212 557 L212 557 Z M249 101 C249 101 249 101 249 101 C250 85 248 71 241 58 C235 46 226 37 215 31 C179 16 148 16 120 33 C92 51 68 80 48 122 C36 148 29 173 23 200 C18 228 14 255 12 283 C10 318 8 352 6 386 C4 421 3 456 1 490 C1 509 0 527 2 545 C4 563 6 582 7 600 C9 632 13 663 19 692 C26 722 33 751 41 780 C49 808 59 831 73 849 C88 868 104 885 122 900 C126 904 129 905 134 905 C140 906 145 906 149 905 C173 902 194 894 213 881 C233 869 251 852 267 830 C277 819 283 806 287 791 C291 777 295 762 297 746 C304 714 309 683 314 651 C320 620 325 588 330 556 C336 524 339 492 339 460 C340 428 340 396 338 364 C336 336 332 309 324 281 C316 253 300 246 276 262 C262 272 252 286 246 304 C245 309 244 314 241 318 C239 323 235 328 231 332 C230 328 230 325 228 320 C227 316 226 311 224 307 C221 298 218 289 215 279 C213 270 210 261 206 252 C197 227 185 215 168 213 C152 212 135 218 119 230 C106 240 96 252 88 267 C81 283 75 299 69 316 C66 328 64 339 61 351 C59 363 56 375 54 387 C48 423 45 459 47 493 C49 528 54 562 62 596 C66 612 69 627 73 642 C77 658 83 672 90 685 C101 703 113 712 128 714 C144 717 159 713 174 701 C188 690 199 677 207 662 C215 648 220 630 222 608 C225 580 228 554 232 526 C236 499 240 471 243 443 C245 431 246 418 247 405 C249 393 250 380 251 367 C253 359 254 351 256 342 C258 334 260 325 262 316 C264 310 267 304 270 298 C274 293 277 289 281 283 C286 278 291 276 297 276 C304 277 307 280 309 286 C311 293 313 300 314 306 C319 332 321 357 322 383 C324 409 323 435 321 461 C318 495 315 528 311 561 C308 595 304 628 298 662 C295 683 292 703 287 723 C283 744 277 764 269 783 C258 814 242 837 222 851 C202 866 181 877 157 883 C146 887 136 885 127 877 C119 869 111 862 103 854 C89 840 78 822 70 802 C63 782 57 762 51 740 C38 682 31 624 27 564 C24 505 24 444 27 382 C30 344 35 306 42 269 C50 233 57 196 65 158 C69 140 75 122 83 106 C91 90 102 76 114 64 C132 46 151 38 173 40 C195 43 213 55 227 75 C231 80 233 83 237 87 C241 91 245 96 249 101 L249 101 Z " />
<glyph glyph-name="A" unicode="A" horiz-adv-x="279" d="M89 817 C89 817 89 817 89 817 C80 734 72 653 66 572 C60 492 54 410 46 327 C68 326 87 326 106 325 C126 325 145 326 163 329 C164 335 164 350 160 375 C157 401 154 431 148 465 C143 500 137 536 131 576 C125 616 120 653 114 687 C109 722 104 751 99 775 C95 799 91 813 89 817 L89 817 Z M15 2 C15 2 15 2 15 2 C15 2 1 2 1 2 C1 7 0 12 1 17 C3 23 3 26 3 28 C9 86 14 144 19 200 C25 257 30 314 35 372 C41 426 46 480 50 534 C55 588 60 643 64 697 C67 724 69 750 71 776 C73 803 75 830 77 856 C78 858 79 858 78 860 C78 862 78 864 78 865 C80 867 82 869 82 870 C82 870 101 870 101 870 C102 870 102 869 102 868 C103 868 104 867 104 866 C106 865 106 863 106 861 C106 859 107 857 107 855 C114 806 121 758 127 709 C134 661 141 612 147 562 C147 562 177 358 177 358 C183 319 189 281 195 241 C201 202 208 163 214 123 C217 107 220 90 222 74 C225 58 228 42 231 25 C232 23 233 19 233 15 C234 11 234 7 234 2 C234 2 220 2 220 2 C219 8 218 12 216 17 C214 23 213 27 212 29 C206 71 200 112 194 152 C188 193 183 234 177 275 C175 292 171 302 167 305 C163 309 153 311 136 311 C123 311 111 312 98 311 C86 311 73 310 60 310 C58 310 55 310 53 309 C51 309 49 308 45 307 C44 296 43 286 41 275 C40 265 39 254 37 243 C34 207 32 173 29 137 C27 102 24 67 21 31 C21 30 20 29 20 28 C21 28 21 27 20 26 C20 24 21 20 19 15 C18 11 17 6 15 2 L15 2 Z " />
<glyph glyph-name="B" unicode="B" horiz-adv-x="226" d="M15 449 C15 449 15 449 15 449 C25 451 32 453 38 455 C44 458 51 463 58 470 C73 484 87 498 99 513 C112 529 121 546 127 566 C129 569 130 571 131 573 C133 575 134 578 135 580 C175 652 176 725 136 800 C134 805 131 810 127 814 C123 819 119 823 114 825 C89 841 63 851 36 853 C29 855 25 855 22 852 C20 850 18 845 17 838 C17 825 17 812 16 799 C16 787 15 774 15 761 C15 728 14 696 14 663 C14 631 14 598 14 564 C14 545 14 526 14 507 C14 489 15 469 15 449 L15 449 Z M13 429 C13 429 13 429 13 429 C14 418 14 407 14 395 C14 383 14 371 14 359 C16 307 16 255 16 203 C17 151 18 99 19 47 C19 38 21 33 23 29 C26 26 31 23 39 19 C63 11 85 15 105 31 C115 39 122 48 128 58 C134 69 140 80 144 91 C152 112 158 133 160 154 C163 176 164 197 164 219 C166 277 154 331 129 379 C123 392 116 402 106 410 C96 418 84 423 69 424 C60 426 51 426 42 426 C34 427 24 428 13 429 L13 429 Z M50 444 C50 444 50 444 50 444 C60 442 68 440 76 438 C85 436 93 434 101 430 C111 427 118 423 124 415 C130 408 136 400 140 391 C152 367 161 342 168 316 C176 290 180 263 180 235 C181 213 181 192 179 170 C178 148 174 127 166 105 C161 89 155 74 147 59 C139 45 129 31 115 19 C99 4 79 -2 55 2 C51 4 47 4 42 5 C38 7 33 8 28 9 C17 13 10 15 7 19 C5 23 3 31 3 42 C3 63 2 84 2 104 C3 125 3 146 3 166 C3 166 3 379 3 379 C3 453 2 526 2 598 C2 671 2 744 1 818 C1 824 1 828 1 833 C1 839 1 844 0 849 C0 859 5 865 14 867 C18 868 21 868 24 869 C28 871 31 871 34 870 C49 868 62 866 76 861 C90 857 104 851 117 843 C125 839 131 833 137 825 C151 806 160 787 168 765 C176 744 180 722 180 698 C182 662 174 628 158 596 C157 594 157 592 155 590 C154 588 153 586 151 583 C141 556 129 531 111 509 C94 487 74 467 52 448 C52 448 52 447 50 444 L50 444 Z " />
<glyph glyph-name="C" unicode="C" horiz-adv-x="240" d="M184 751 C184 751 184 751 184 751 C184 757 184 761 183 765 C183 770 182 775 181 779 C181 787 180 793 180 800 C181 808 181 815 180 822 C179 834 174 843 164 849 C155 855 143 854 128 844 C121 840 115 834 109 828 C103 822 99 815 95 806 C91 793 87 780 83 766 C79 752 76 739 73 725 C67 695 62 667 56 637 C51 608 45 578 39 548 C34 522 31 496 30 470 C30 444 29 419 27 393 C27 383 27 373 26 363 C26 353 25 344 23 334 C19 296 19 258 25 221 C32 185 40 148 50 111 C54 96 61 82 69 68 C78 55 88 42 99 30 C109 21 116 16 123 16 C131 17 138 23 146 34 C156 47 160 60 159 72 C159 82 158 91 157 99 C157 108 156 117 155 126 C155 130 154 135 153 139 C153 144 155 148 161 152 C163 151 164 150 165 148 C167 147 168 146 168 144 C172 130 173 116 174 101 C176 87 175 72 173 56 C172 46 168 37 161 28 C155 20 147 12 138 5 C132 1 125 -2 118 0 C112 2 106 5 100 9 C88 19 78 29 68 41 C40 79 23 122 17 170 C16 180 15 188 13 197 C11 207 10 216 8 225 C4 247 2 268 2 290 C3 312 5 334 7 356 C9 372 9 387 9 401 C10 416 11 431 12 446 C14 460 14 472 14 484 C15 497 17 510 19 523 C25 557 31 591 37 624 C44 658 51 691 57 725 C60 737 63 749 65 761 C68 773 71 785 74 797 C78 809 82 820 90 830 C98 840 107 849 117 856 C125 862 132 866 140 868 C148 871 157 870 166 865 C186 855 195 839 195 817 C195 810 194 803 194 795 C195 787 195 780 195 772 C195 769 195 766 194 762 C194 758 193 755 192 751 C192 751 184 751 184 751 L184 751 Z " />
<glyph glyph-name="D" unicode="D" horiz-adv-x="323" d="M68 22 C68 22 68 22 68 22 C78 23 84 24 90 27 C96 31 102 35 106 39 C126 58 142 79 152 103 C162 127 172 150 181 172 C191 195 200 218 208 241 C216 263 223 284 229 305 C236 327 240 349 241 372 C241 380 241 386 241 392 C241 399 242 406 243 413 C247 432 249 450 251 468 C254 487 256 506 258 525 C261 553 261 580 258 607 C256 635 251 662 243 688 C238 706 234 723 229 740 C225 758 217 774 205 789 C200 797 195 803 189 810 C183 818 177 824 169 828 C140 848 106 854 67 847 C65 709 64 573 64 436 C65 300 66 162 68 22 L68 22 Z M15 88 C15 88 15 88 15 88 C16 83 17 79 16 73 C16 68 16 63 16 57 C18 52 19 47 20 41 C22 36 24 31 26 26 C31 17 39 14 49 18 C50 22 51 35 51 60 C52 86 52 118 52 156 C53 195 53 238 53 286 C53 335 54 384 53 434 C53 485 53 534 52 582 C52 631 52 675 51 713 C51 752 51 784 49 808 C48 833 47 847 46 850 C44 852 42 853 38 853 C35 854 33 854 29 854 C26 854 23 854 20 855 C18 857 15 859 13 863 C23 869 35 871 48 871 C58 872 67 872 77 872 C87 872 97 872 106 870 C134 868 158 861 177 846 C197 832 213 813 226 789 C234 777 239 764 243 750 C247 736 251 723 255 709 C264 681 269 652 272 623 C276 595 277 565 275 535 C274 516 274 498 272 479 C271 461 268 442 262 423 C262 420 261 415 261 409 C261 369 254 330 242 292 C230 255 217 217 203 179 C201 172 198 165 195 158 C193 152 190 145 187 137 C180 118 171 100 160 82 C150 64 137 48 121 33 C110 23 98 14 84 8 C71 2 56 1 39 4 C20 8 8 18 4 34 C2 42 1 49 1 57 C2 66 2 74 2 81 C3 83 4 83 6 85 C8 87 10 89 11 90 C12 90 13 89 13 89 C14 89 15 89 15 88 L15 88 Z " />
<glyph glyph-name="E" unicode="E" horiz-adv-x="260" d="M214 12 C214 12 214 12 214 12 C214 12 214 -2 214 -2 C192 -1 169 -1 146 -1 C124 0 101 1 78 1 C67 1 56 2 44 1 C32 1 21 0 9 0 C5 6 2 11 2 17 C2 23 2 29 2 35 C2 101 3 165 2 229 C2 294 2 359 2 424 C2 476 3 527 3 577 C4 628 5 679 5 730 C5 750 6 768 5 788 C5 808 4 828 4 848 C4 858 5 864 7 866 C9 869 15 870 25 870 C55 870 85 871 114 870 C144 870 173 869 203 868 C205 868 205 868 207 868 C209 869 211 869 212 868 C214 867 215 866 215 866 C215 866 215 855 215 855 C214 855 213 854 211 852 C210 852 210 851 208 851 C207 852 206 852 204 852 C176 853 149 853 121 853 C94 854 66 855 38 855 C31 856 27 856 24 853 C22 851 20 845 19 837 C17 811 16 785 16 759 C16 727 16 697 16 665 C16 634 16 602 15 570 C15 557 15 543 15 529 C15 515 15 501 14 487 C14 483 14 479 14 473 C14 468 15 462 15 455 C15 455 180 455 180 455 C186 455 191 455 197 454 C203 454 209 453 215 451 C215 451 215 441 215 441 C214 441 213 442 211 441 C209 441 208 440 206 440 C185 441 163 441 141 441 C119 441 97 441 75 441 C66 441 57 441 47 440 C37 440 27 439 17 438 C17 431 16 424 15 418 C15 412 14 407 14 401 C15 362 15 324 15 285 C16 247 16 208 16 168 C17 155 18 142 16 128 C15 115 15 102 15 88 C15 77 15 66 16 54 C18 42 19 30 19 18 C53 16 85 15 117 15 C149 16 182 15 214 12 L214 12 Z " />
<glyph glyph-name="F" unicode="F" horiz-adv-x="240" d="M20 829 C20 829 20 829 20 829 C20 816 19 804 19 790 C19 777 19 764 18 750 C18 703 19 657 18 609 C18 562 17 515 17 467 C17 464 18 462 18 458 C19 455 20 451 20 447 C29 447 37 447 45 446 C53 446 61 445 69 445 C91 446 112 446 132 446 C153 447 174 447 195 447 C195 447 195 430 195 430 C165 429 136 428 107 429 C79 431 49 430 19 426 C19 423 19 421 18 417 C18 414 17 411 17 407 C17 407 17 75 17 75 C17 65 17 55 17 45 C18 35 18 25 18 15 C18 13 18 12 18 9 C19 7 19 4 17 2 C17 2 5 2 5 2 C5 2 3 2 3 2 C2 5 1 8 1 10 C1 13 1 16 1 19 C2 90 2 161 2 231 C3 302 3 373 3 443 C4 512 4 579 4 647 C5 715 6 784 6 852 C6 855 6 857 6 860 C6 864 7 867 7 870 C7 870 35 870 35 870 C39 869 41 868 45 868 C49 869 53 869 57 869 C81 870 104 870 126 870 C149 870 172 870 195 870 C195 870 195 850 195 850 C195 850 191 850 191 850 C191 850 43 850 43 850 C33 850 27 850 25 847 C23 845 22 839 20 829 L20 829 Z " />
<glyph glyph-name="G" unicode="G" horiz-adv-x="313" d="M268 299 C268 299 268 299 268 299 C264 298 260 297 256 296 C252 296 248 295 243 294 C235 292 224 289 210 287 C212 275 212 265 212 253 C213 242 214 231 215 219 C217 200 218 181 219 161 C221 142 221 123 221 103 C221 93 221 83 218 72 C216 62 213 51 209 41 C205 30 199 22 190 14 C182 7 171 3 157 2 C144 2 133 2 123 3 C114 5 107 7 99 11 C92 15 86 20 80 27 C74 35 68 44 62 55 C49 78 39 104 31 132 C25 156 20 179 13 202 C7 226 3 250 1 275 C1 284 1 292 1 300 C2 309 3 318 3 326 C3 326 3 350 3 350 C3 370 2 388 1 406 C1 425 0 444 0 462 C1 524 7 585 18 646 C23 671 28 694 36 718 C44 742 54 766 65 789 C71 799 75 807 80 815 C86 824 92 832 98 840 C109 854 121 862 137 866 C153 871 168 870 182 863 C190 860 194 856 196 850 C208 819 211 788 206 758 C201 759 198 760 197 762 C197 765 196 768 196 771 C196 779 196 785 196 793 C196 801 196 809 195 816 C194 834 188 845 175 851 C163 858 149 857 133 849 C120 842 110 833 102 821 C95 810 88 798 82 786 C63 746 49 707 40 665 C32 624 26 582 22 538 C19 504 17 470 18 436 C20 402 21 368 21 334 C23 326 23 317 21 307 C19 291 18 276 20 260 C22 245 25 230 29 214 C35 197 39 180 43 162 C47 145 52 128 57 110 C61 99 66 88 71 77 C77 67 82 56 88 45 C96 33 104 26 116 22 C128 18 141 17 154 17 C163 18 171 20 177 24 C184 29 189 35 191 43 C195 53 198 63 200 73 C203 84 205 94 205 104 C205 125 205 145 203 165 C202 186 201 207 199 227 C199 237 199 246 197 254 C196 263 195 272 194 281 C185 283 176 283 167 280 C159 278 150 276 140 275 C140 275 125 289 125 289 C127 291 129 291 131 291 C133 291 135 292 137 292 C149 295 161 297 173 299 C185 301 197 303 209 305 C217 307 223 308 230 310 C238 312 245 314 252 315 C252 315 268 299 268 299 L268 299 Z " />
<glyph glyph-name="H" unicode="H" horiz-adv-x="310" d="M261 98 C261 98 261 98 261 98 C262 84 262 69 262 54 C263 40 264 25 264 10 C264 9 264 8 264 6 C265 5 265 4 264 2 C264 2 251 2 251 2 C251 4 252 4 251 6 C251 8 250 10 250 11 C250 43 249 75 248 107 C248 140 247 173 246 205 C246 237 246 269 245 301 C245 334 244 367 242 401 C204 409 167 412 129 409 C91 407 53 405 14 404 C14 397 14 391 13 384 C13 378 12 371 12 364 C12 364 15 154 15 154 C16 130 17 106 17 81 C18 57 19 32 19 6 C19 5 19 4 18 2 C18 2 0 2 0 2 C0 4 0 4 0 5 C1 7 1 8 0 9 C0 9 0 119 0 119 C0 119 0 449 0 449 C0 487 0 524 0 560 C1 597 1 634 1 672 C1 672 1 858 1 858 C1 861 2 865 3 870 C3 870 19 870 19 870 C19 870 19 867 19 867 C14 799 12 731 12 663 C13 596 13 528 13 459 C13 454 13 448 13 442 C14 436 14 429 14 421 C53 421 90 422 127 421 C165 421 202 420 240 420 C241 426 241 431 241 436 C242 442 242 447 242 451 C241 517 240 583 238 647 C237 712 236 777 234 843 C234 847 234 849 234 853 C234 857 234 861 232 864 C232 866 233 867 232 867 C232 868 232 869 232 870 C232 870 249 870 249 870 C249 870 249 865 249 865 C249 855 249 844 248 833 C248 823 247 812 247 801 C249 753 250 704 250 656 C251 608 252 560 253 511 C255 443 256 374 257 305 C259 237 260 168 261 98 L261 98 Z " />
<glyph glyph-name="I" unicode="I" horiz-adv-x="67" d="M1 177 C1 177 1 177 1 177 C1 243 1 309 1 374 C1 440 1 506 0 572 C0 572 0 856 0 856 C0 864 2 868 4 870 C4 870 15 870 15 870 C15 870 15 870 15 870 C15 864 15 858 15 851 C16 845 16 838 16 831 C16 831 16 593 16 593 C16 563 17 534 16 503 C16 473 16 442 16 412 C16 395 16 379 16 362 C17 346 17 329 17 311 C18 261 19 212 19 162 C20 112 21 62 21 12 C21 11 21 10 21 8 C22 6 22 5 21 3 C21 3 21 2 21 2 C21 2 6 2 6 2 C5 6 4 11 4 17 C4 44 3 70 2 96 C2 123 1 150 1 177 L1 177 Z " />
<glyph glyph-name="J" unicode="J" horiz-adv-x="219" d="M168 366 C168 366 168 366 168 366 C169 330 170 295 171 259 C173 223 173 187 173 151 C174 132 173 114 169 95 C165 77 160 58 153 40 C149 27 142 17 131 9 C121 2 108 -2 94 -2 C81 -2 69 0 57 4 C45 9 35 18 27 30 C3 70 0 113 18 158 C21 166 24 172 27 178 C31 185 36 191 42 195 C47 199 51 201 55 202 C60 204 66 203 72 200 C68 197 65 194 61 190 C58 186 55 182 51 177 C48 172 45 166 42 158 C42 158 41 157 41 157 C35 147 30 138 28 128 C27 126 26 121 24 114 C22 97 24 78 29 58 C30 52 33 46 37 40 C45 26 57 18 74 14 C90 11 102 13 114 20 C126 28 134 38 138 52 C152 96 159 142 157 190 C156 236 155 282 155 328 C156 374 156 420 156 466 C156 504 157 542 156 579 C156 617 155 654 154 692 C154 720 155 747 154 774 C154 802 153 829 152 857 C152 861 152 864 152 866 C153 869 156 870 160 870 C166 870 169 870 169 866 C170 863 170 860 170 856 C170 822 170 787 169 753 C169 719 168 685 168 650 C168 602 169 556 168 508 C168 461 168 414 168 366 L168 366 Z " />
<glyph glyph-name="K" unicode="K" horiz-adv-x="403" d="M41 1 C41 1 41 1 41 1 C41 5 41 8 40 12 C40 16 39 20 39 23 C40 69 40 113 40 158 C41 204 42 249 43 295 C43 317 43 339 43 361 C44 383 44 406 44 428 C45 470 45 511 45 553 C46 595 47 637 47 679 C47 697 47 714 46 732 C46 750 46 768 46 786 C46 792 46 798 47 804 C49 810 50 817 50 823 C50 829 51 833 50 839 C50 845 47 850 41 852 C35 855 31 854 26 850 C22 846 18 842 14 837 C13 836 12 834 10 832 C8 830 6 828 4 825 C2 835 4 844 9 853 C15 863 21 868 28 870 C36 872 43 871 49 865 C56 860 61 853 63 843 C67 831 68 819 66 806 C65 794 64 781 63 767 C63 748 63 728 62 708 C62 688 61 669 60 649 C59 605 59 560 58 516 C58 472 57 428 55 383 C55 357 55 332 55 305 C55 279 55 252 54 225 C54 202 55 179 54 155 C54 132 53 109 53 85 C53 74 53 64 53 52 C54 41 54 30 53 18 C53 15 54 12 53 8 C53 5 49 3 41 1 L41 1 Z M355 66 C355 66 355 66 355 66 C357 54 355 42 350 31 C346 21 339 13 330 7 C322 2 315 0 308 2 C302 5 295 8 287 11 C279 16 273 21 268 28 C264 36 259 43 255 50 C240 83 225 116 209 148 C193 181 177 213 160 245 C149 268 138 289 126 311 C115 333 104 355 92 377 C85 393 85 407 91 421 C114 473 137 525 159 577 C182 629 205 681 227 733 C236 753 244 773 252 793 C260 814 269 835 277 855 C279 859 279 861 281 865 C283 869 287 870 292 867 C297 865 300 862 298 858 C297 854 295 851 293 847 C281 821 269 795 256 768 C244 742 232 715 220 687 C201 643 183 598 164 553 C146 509 127 464 108 419 C103 407 103 394 109 380 C125 348 141 317 157 285 C173 253 189 221 205 189 C217 166 228 143 240 119 C252 96 264 73 275 49 C277 46 278 44 280 40 C282 37 284 34 286 31 C304 14 320 16 334 36 C338 41 341 46 344 50 C348 55 351 60 355 66 L355 66 Z " />
<glyph glyph-name="L" unicode="L" horiz-adv-x="269" d="M219 2 C219 2 219 2 219 2 C183 2 147 3 111 2 C75 2 39 1 2 0 C2 16 2 29 1 42 C1 56 0 69 0 82 C0 100 0 117 0 134 C1 152 1 169 1 186 C1 254 1 321 1 387 C1 454 2 521 2 588 C2 632 2 676 2 720 C2 765 2 810 1 854 C1 854 1 859 1 859 C2 863 2 865 3 868 C5 872 7 873 11 871 C13 871 15 869 16 866 C18 864 18 861 18 858 C18 852 18 846 17 839 C17 833 16 826 16 819 C16 754 15 690 14 624 C14 559 13 493 13 427 C13 427 13 79 13 79 C13 69 13 59 13 49 C14 39 15 29 15 18 C19 18 22 18 24 17 C27 17 30 16 32 16 C58 16 82 16 106 16 C131 17 156 17 181 17 C187 17 192 18 197 17 C203 17 208 16 213 15 C215 15 216 15 218 14 C220 14 222 13 224 11 C223 10 223 9 222 7 C222 5 221 4 219 2 L219 2 Z " />
<glyph glyph-name="M" unicode="M" horiz-adv-x="308" d="M14 2 C14 2 14 2 14 2 C14 2 1 2 1 2 C1 4 0 8 0 12 C1 30 1 47 1 64 C1 82 1 99 1 116 C2 181 3 244 3 307 C4 371 5 435 5 499 C5 539 5 579 5 618 C6 658 7 697 7 737 C7 757 7 776 7 794 C8 813 8 832 8 851 C8 861 10 867 12 870 C12 870 37 870 37 870 C39 869 40 868 41 867 C50 801 59 733 67 665 C76 597 86 530 97 463 C100 463 102 463 103 462 C106 470 108 477 110 483 C113 490 115 497 117 504 C128 536 138 568 148 600 C158 633 169 665 179 697 C188 725 196 751 204 777 C212 804 221 831 230 857 C232 863 234 867 238 870 C238 870 260 870 260 870 C262 866 263 861 263 857 C257 807 254 759 253 709 C253 660 251 610 249 560 C247 510 247 460 245 410 C244 360 243 310 241 260 C240 221 240 182 239 143 C239 105 238 66 236 27 C236 23 236 19 236 14 C237 10 236 6 234 2 C234 2 220 2 220 2 C219 5 219 7 219 9 C220 12 220 15 220 17 C221 43 221 67 221 91 C222 116 223 141 224 166 C226 206 227 246 228 285 C230 325 231 364 232 404 C234 472 235 539 237 605 C239 672 241 739 242 806 C242 810 242 813 242 816 C242 820 242 823 241 826 C241 827 239 827 236 827 C229 806 222 785 214 764 C207 744 200 723 192 701 C185 680 178 659 172 637 C166 615 160 594 153 572 C146 550 140 529 133 507 C127 485 120 463 112 440 C108 440 105 440 100 440 C96 440 90 440 84 439 C76 501 67 563 58 623 C50 684 41 745 31 807 C31 807 27 807 27 807 C27 798 26 790 25 781 C25 773 24 764 24 754 C23 680 23 608 21 534 C20 461 19 387 17 312 C17 280 17 249 16 218 C16 188 15 156 14 124 C14 106 15 89 15 71 C16 53 16 35 16 17 C16 15 17 12 16 10 C16 8 15 6 14 2 L14 2 Z " />
<glyph glyph-name="N" unicode="N" horiz-adv-x="333" d="M2 816 C2 816 2 816 2 816 C2 822 3 828 2 834 C2 841 1 847 0 853 C0 863 5 869 13 869 C21 870 26 866 28 856 C36 828 42 801 49 773 C57 746 64 719 72 691 C96 610 118 530 141 449 C165 369 188 288 211 207 C218 185 224 164 230 141 C237 119 244 96 250 74 C253 67 255 61 258 53 C262 46 266 39 270 31 C271 43 271 55 271 67 C272 80 272 92 272 104 C272 124 273 142 271 160 C270 179 269 198 269 217 C269 241 268 263 268 287 C269 311 269 335 269 358 C269 400 270 442 269 483 C269 525 268 566 267 608 C267 646 268 682 267 719 C267 757 266 794 265 832 C265 832 265 832 265 832 C265 832 265 833 265 833 C265 833 265 869 265 869 C266 869 266 869 266 869 C266 870 267 870 267 870 C267 870 281 870 281 870 C281 868 281 865 281 863 C282 861 282 859 282 857 C282 803 283 750 282 696 C282 642 281 588 281 534 C281 478 281 422 281 366 C282 311 283 255 283 198 C284 172 285 145 285 118 C286 92 287 65 288 37 C288 37 288 25 288 25 C288 13 286 5 281 2 C281 2 256 2 256 2 C218 138 180 271 141 405 C103 539 64 674 25 810 C24 810 24 811 23 810 C23 810 22 809 20 809 C20 798 19 788 18 776 C18 765 17 754 17 742 C15 660 14 577 14 494 C14 473 15 452 15 430 C16 408 16 387 16 365 C16 365 16 132 16 132 C16 118 16 99 17 77 C19 55 20 37 21 22 C21 19 22 16 21 12 C21 8 19 5 15 2 C15 2 8 2 8 2 C5 5 3 7 3 11 C4 15 4 19 4 22 C4 40 5 60 4 84 C4 108 3 129 3 146 C3 230 2 311 2 393 C2 475 2 558 1 640 C1 670 1 699 1 728 C2 758 2 787 2 816 L2 816 Z " />
<glyph glyph-name="O" unicode="O" horiz-adv-x="377" d="M308 371 C308 371 308 371 308 371 C309 381 309 391 310 401 C312 411 312 421 311 431 C309 467 307 502 305 537 C303 573 301 608 298 644 C296 670 294 694 288 718 C283 742 276 766 266 789 C261 801 254 812 246 821 C238 831 229 839 217 846 C208 852 199 854 190 853 C182 853 173 851 163 848 C163 848 160 848 160 848 C147 849 137 846 127 839 C118 833 110 824 102 812 C100 808 98 804 95 800 C93 796 90 792 87 787 C77 770 70 751 66 731 C62 711 57 692 51 672 C49 664 47 654 45 644 C43 628 41 612 39 596 C38 580 36 564 32 548 C25 512 21 476 19 440 C17 404 17 368 18 331 C18 320 19 309 21 297 C24 285 26 274 28 262 C29 258 29 255 29 250 C30 246 30 241 30 236 C32 229 33 222 32 214 C32 206 32 199 34 191 C38 177 41 163 45 149 C50 135 54 121 57 107 C61 92 66 79 75 67 C85 55 95 44 105 33 C117 21 132 16 148 18 C160 18 171 20 182 23 C187 25 191 26 195 27 C200 29 204 30 208 32 C210 32 210 32 210 32 C211 33 212 33 213 33 C213 33 214 32 214 32 C229 37 240 46 247 58 C253 67 257 75 261 83 C266 92 270 101 273 110 C278 124 282 137 285 149 C289 162 292 175 295 188 C303 215 307 242 306 268 C306 286 306 302 306 319 C307 337 308 354 308 371 L308 371 Z M327 466 C327 466 327 466 327 466 C330 445 330 424 328 402 C326 381 325 360 324 338 C324 324 324 311 324 297 C324 283 324 269 323 255 C323 239 321 222 317 206 C313 187 308 168 303 149 C299 131 293 112 286 94 C279 72 269 55 254 39 C240 24 220 15 195 11 C184 9 174 8 162 5 C151 3 140 2 128 3 C113 5 101 11 93 20 C81 33 70 46 61 60 C53 75 45 91 39 107 C24 150 15 193 9 236 C4 280 1 324 0 368 C0 394 1 420 2 446 C4 472 6 498 9 523 C11 533 12 541 14 551 C16 561 18 571 20 580 C24 602 27 624 30 646 C34 669 38 691 43 713 C49 737 56 760 66 782 C76 805 90 826 108 844 C110 846 111 848 113 850 C115 852 118 854 120 854 C132 858 143 860 155 864 C167 868 179 870 191 870 C205 870 216 867 227 859 C239 852 249 843 258 832 C268 820 276 807 281 792 C287 778 292 763 296 747 C300 738 301 730 302 720 C304 711 305 702 306 692 C311 663 315 634 318 605 C322 577 323 547 323 517 C324 509 324 501 324 492 C325 484 326 475 327 466 L327 466 Z " />
<glyph glyph-name="P" unicode="P" horiz-adv-x="237" d="M112 535 C156 585 175 641 171 704 C171 720 169 734 165 748 C162 763 158 778 154 792 C148 820 130 839 102 848 C94 852 85 854 75 854 C65 855 56 856 46 856 C37 857 32 856 28 852 C25 849 23 843 22 833 C21 816 21 799 20 782 C20 766 19 749 18 731 C18 701 18 671 17 641 C17 611 16 581 16 551 C16 539 17 527 17 513 C18 500 19 487 19 473 C35 469 48 472 58 482 C68 491 76 500 85 508 C95 517 104 526 112 535 L112 535 Z M169 800 C169 800 169 800 169 800 C179 772 184 745 186 716 C188 688 186 659 179 629 C173 601 162 575 144 550 C134 535 123 521 111 507 C99 494 86 482 70 471 C63 466 55 462 46 459 C38 457 28 453 17 448 C17 445 17 441 16 436 C16 432 15 427 15 421 C15 386 15 351 15 316 C15 282 16 246 16 210 C16 184 17 159 17 132 C18 106 18 79 18 53 C18 53 18 2 18 2 C18 2 3 2 3 2 C3 2 3 39 3 39 C3 39 3 39 3 39 C3 42 4 44 3 46 C3 49 2 52 2 54 C3 114 4 174 3 233 C3 293 2 353 2 413 C3 476 3 538 3 600 C3 662 3 725 3 787 C3 797 3 807 2 817 C2 827 1 838 0 848 C0 851 0 853 0 856 C1 860 1 863 1 867 C7 868 12 868 18 869 C24 871 30 871 36 871 C47 871 57 872 67 871 C78 871 89 869 99 867 C118 863 133 855 144 843 C156 831 164 817 169 800 L169 800 Z " />
<glyph glyph-name="Q" unicode="Q" horiz-adv-x="415" d="M187 69 C187 69 187 69 187 69 C195 65 201 66 207 71 C203 75 201 76 197 76 C194 77 191 75 187 69 L187 69 Z M18 384 C18 384 18 384 18 384 C21 368 24 351 26 334 C29 318 32 301 34 284 C38 257 45 232 53 206 C62 181 72 156 83 131 C93 111 108 94 130 80 C142 74 150 70 154 70 C158 71 165 76 175 84 C185 92 196 93 206 87 C209 86 211 85 213 83 C215 81 218 80 220 78 C230 72 237 68 241 68 C246 69 252 74 259 83 C265 90 270 96 274 103 C279 111 284 118 288 125 C308 154 321 183 331 215 C341 247 347 280 347 314 C348 336 348 358 347 380 C347 402 346 424 345 446 C344 466 344 486 343 506 C343 526 341 546 339 565 C338 585 337 604 333 622 C330 641 327 660 324 679 C321 699 316 717 310 735 C304 753 297 771 288 788 C283 801 277 812 267 820 C258 829 248 837 236 844 C232 847 228 849 222 850 C217 852 212 853 207 854 C199 857 191 858 183 854 C176 851 169 849 161 847 C144 845 131 841 119 831 C108 822 98 811 90 797 C72 766 58 734 48 700 C38 666 31 632 25 597 C20 562 18 527 16 491 C15 456 16 420 18 384 L18 384 Z M255 59 C255 59 255 59 255 59 C265 49 274 40 284 32 C294 24 306 19 320 17 C332 16 340 17 345 20 C351 24 354 31 355 43 C355 44 356 47 357 52 C363 51 367 49 368 45 C370 42 370 38 369 34 C368 24 362 16 352 9 C342 3 331 1 318 3 C309 5 300 8 291 11 C283 15 275 20 268 26 C258 37 246 44 233 46 C221 49 208 50 194 50 C162 50 136 57 114 71 C93 86 76 107 62 135 C44 173 31 211 22 250 C14 290 8 330 4 372 C2 406 1 438 1 471 C1 505 3 538 5 571 C7 603 11 633 19 663 C27 693 38 723 50 752 C56 765 60 778 66 790 C72 803 81 814 91 824 C100 834 109 841 119 848 C129 856 141 860 155 862 C165 864 174 866 183 869 C193 873 202 873 212 869 C223 867 232 864 239 860 C277 838 303 807 317 767 C326 743 333 720 338 694 C344 669 348 644 351 618 C355 591 357 565 358 537 C360 510 361 483 362 455 C364 425 365 397 365 367 C366 338 365 308 362 278 C360 255 356 232 350 209 C344 187 335 165 321 144 C315 135 310 127 304 117 C299 108 293 99 286 90 C282 85 278 81 272 75 C267 70 261 65 255 59 L255 59 Z " />
<glyph glyph-name="R" unicode="R" horiz-adv-x="300" d="M217 535 C217 535 217 535 217 535 C238 597 242 658 230 718 C229 725 227 731 225 738 C223 746 221 752 217 757 C212 768 207 778 199 788 C192 798 185 808 177 817 C166 833 151 842 131 845 C113 849 95 850 75 850 C56 851 37 847 17 838 C17 827 18 816 17 803 C17 791 16 778 15 766 C15 717 15 668 15 619 C15 571 15 522 14 472 C14 446 26 429 50 421 C54 421 59 419 65 416 C82 409 97 411 111 421 C119 427 127 433 135 439 C143 445 151 451 159 456 C174 466 186 477 195 491 C205 505 212 520 217 535 L217 535 Z M247 713 C247 713 247 713 247 713 C251 693 252 674 252 654 C253 634 252 615 248 595 C244 570 238 547 229 523 C221 500 206 479 186 461 C177 453 167 445 157 437 C147 429 137 421 126 412 C130 408 133 403 136 399 C144 390 149 381 153 369 C157 358 161 346 163 334 C168 313 170 292 170 270 C170 248 170 227 170 205 C171 180 171 155 172 129 C174 103 175 78 175 52 C176 45 176 38 176 30 C177 23 177 16 177 8 C177 6 176 4 174 2 C174 2 160 2 160 2 C160 3 159 5 159 7 C159 15 159 22 159 30 C159 38 159 46 158 54 C158 82 157 109 155 135 C154 162 154 189 154 216 C154 234 154 251 154 267 C155 284 154 301 150 317 C148 327 146 335 144 343 C142 352 140 361 137 369 C133 382 127 390 121 393 C115 397 106 399 92 399 C84 400 76 401 67 403 C59 406 50 409 41 411 C38 413 35 413 31 415 C28 417 24 419 19 421 C18 418 17 416 16 412 C16 409 15 406 15 403 C15 403 15 355 15 355 C16 315 16 274 16 234 C16 194 17 154 18 114 C18 99 18 84 19 69 C21 55 22 40 23 24 C23 22 23 19 23 13 C24 8 24 4 23 2 C23 2 22 2 22 2 C22 2 7 2 7 2 C7 4 6 7 6 12 C7 18 7 21 6 23 C6 23 3 308 3 308 C3 308 0 821 0 821 C0 821 0 868 0 868 C5 869 9 870 13 870 C18 871 23 871 28 871 C36 871 43 871 50 871 C58 871 65 872 72 872 C78 872 84 872 90 872 C96 872 102 872 107 871 C125 867 144 860 162 850 C165 849 168 848 170 846 C173 844 175 842 177 840 C195 823 210 805 222 783 C235 762 243 739 247 713 L247 713 Z " />
<glyph glyph-name="S" unicode="S" horiz-adv-x="232" d="M12 146 C12 146 12 146 12 146 C13 143 14 140 14 137 C15 135 15 132 15 128 C16 117 16 107 16 96 C16 86 17 75 18 64 C20 49 24 37 34 28 C44 20 57 16 73 17 C86 19 97 22 106 27 C116 33 124 41 131 53 C155 95 167 136 168 177 C170 219 162 261 144 303 C142 311 139 317 134 323 C130 329 125 335 121 341 C110 359 101 376 95 395 C89 415 84 434 78 453 C75 466 71 478 67 490 C63 502 59 514 55 526 C40 577 30 627 26 675 C24 702 24 728 27 754 C31 781 38 807 49 832 C55 845 61 855 71 862 C81 870 93 874 106 874 C135 874 155 861 166 834 C170 828 172 821 174 814 C176 808 178 801 179 793 C181 791 182 788 180 785 C179 783 178 780 177 776 C177 776 172 776 172 776 C172 778 172 780 170 782 C169 784 168 786 168 788 C166 812 158 831 142 845 C131 855 119 860 106 859 C94 859 83 852 74 838 C69 831 65 824 61 815 C58 807 55 798 53 789 C46 763 43 738 43 711 C44 685 46 658 49 631 C53 601 60 573 69 544 C79 516 87 486 94 456 C101 432 109 409 119 386 C130 364 141 341 153 319 C168 293 176 265 180 236 C184 208 185 178 181 148 C177 108 163 71 139 37 C124 15 107 3 87 1 C67 -1 47 5 26 17 C13 26 6 38 4 53 C3 67 3 79 2 93 C2 107 1 121 0 134 C0 136 0 138 1 140 C3 142 4 144 5 146 C5 146 12 146 12 146 L12 146 Z " />
<glyph glyph-name="T" unicode="T" horiz-adv-x="286" d="M1 870 C1 870 1 870 1 870 C1 870 241 870 241 870 C241 870 241 857 241 857 C227 857 213 857 198 857 C184 858 169 858 153 857 C142 857 136 857 133 854 C131 852 129 845 129 833 C129 746 129 659 128 572 C128 486 127 398 126 310 C126 262 126 215 126 166 C127 118 128 69 128 21 C128 21 128 2 128 2 C128 2 114 2 114 2 C113 5 112 8 112 11 C112 11 112 93 112 93 C112 152 112 210 112 268 C113 327 114 386 114 444 C114 505 114 566 114 626 C115 687 115 748 115 809 C115 817 115 823 114 831 C114 839 113 847 112 855 C93 858 74 858 56 856 C38 854 20 855 0 858 C0 858 0 869 0 869 C1 870 1 870 1 870 L1 870 Z " />
<glyph glyph-name="U" unicode="U" horiz-adv-x="257" d="M206 667 C206 667 206 667 206 667 C203 589 202 511 203 433 C205 356 206 278 207 199 C207 180 207 161 208 142 C210 124 209 105 205 87 C201 65 193 44 182 23 C179 16 174 11 167 6 C161 2 153 -1 145 -3 C105 -10 69 -4 36 15 C23 23 14 32 9 44 C5 57 2 71 2 85 C2 123 2 161 1 199 C1 238 0 277 0 315 C0 387 0 458 0 529 C1 601 1 672 1 744 C1 764 2 783 1 801 C1 820 0 839 0 858 C0 864 1 868 1 870 C1 870 16 870 16 870 C16 870 16 869 16 869 C16 836 16 804 14 771 C13 739 12 706 12 672 C12 593 12 514 12 435 C13 357 14 278 14 198 C14 178 15 159 15 138 C16 118 17 97 18 77 C20 49 34 30 59 20 C87 10 114 8 140 14 C158 18 169 27 175 42 C177 50 179 56 181 63 C184 71 185 78 185 85 C187 116 189 146 190 176 C192 207 192 238 192 268 C193 310 194 351 192 391 C191 432 190 473 189 514 C189 514 192 514 192 514 C192 571 192 626 191 681 C191 737 190 793 190 849 C190 853 191 855 190 859 C190 863 189 867 189 870 C189 870 209 870 209 870 C209 836 208 803 208 769 C209 735 208 701 206 667 L206 667 Z " />
<glyph glyph-name="V" unicode="V" horiz-adv-x="322" d="M258 870 C258 870 258 870 258 870 C258 870 277 870 277 870 C277 868 277 866 276 863 C276 861 275 858 274 855 C269 829 264 802 259 775 C255 749 250 722 244 694 C239 661 234 628 228 595 C222 563 217 529 211 495 C205 452 198 410 191 366 C185 323 178 280 171 236 C167 210 163 185 158 159 C154 133 149 107 145 81 C144 72 144 63 143 53 C143 44 142 35 140 25 C140 20 139 16 137 11 C136 7 135 2 133 -3 C123 -1 117 3 113 7 C110 12 108 19 106 27 C100 79 95 130 87 182 C80 234 73 286 66 338 C60 386 55 433 49 480 C43 528 38 575 32 622 C27 664 22 704 16 744 C11 785 6 826 0 867 C0 867 0 870 0 870 C0 870 18 870 18 870 C22 838 25 808 28 776 C32 745 35 714 38 682 C42 649 45 617 49 584 C54 552 58 519 62 486 C68 439 74 393 80 346 C87 300 93 253 99 205 C102 186 104 167 106 147 C109 128 112 109 115 89 C116 79 120 67 126 55 C130 77 133 97 137 119 C141 141 145 163 148 185 C160 255 170 324 181 392 C193 461 204 530 215 599 C223 643 229 685 235 728 C242 772 249 815 256 858 C257 860 257 862 257 864 C257 866 258 868 258 870 L258 870 Z " />
<glyph glyph-name="W" unicode="W" horiz-adv-x="601" d="M546 870 C546 870 546 870 546 870 C552 869 554 866 553 859 C553 853 552 848 550 844 C548 836 546 828 544 819 C542 811 541 802 539 793 C528 737 517 682 505 627 C493 573 482 517 470 461 C461 417 452 374 443 329 C435 285 426 240 417 196 C412 170 408 143 403 116 C399 90 394 63 388 36 C387 33 386 27 384 19 C383 11 382 6 380 2 C370 5 363 11 361 21 C359 32 358 41 356 47 C354 65 351 82 349 98 C347 115 345 132 342 149 C332 213 322 276 312 339 C302 403 293 466 283 530 C279 556 276 581 272 607 C268 633 264 659 260 684 C260 688 260 692 258 696 C257 700 255 705 251 709 C250 703 249 698 247 692 C245 686 244 681 242 675 C233 623 223 573 213 521 C203 470 194 418 184 366 C176 322 168 278 159 233 C151 189 142 144 134 98 C132 85 130 73 128 59 C126 46 124 33 122 19 C121 8 115 2 105 2 C97 2 92 7 90 16 C89 23 89 29 88 35 C88 42 87 49 85 55 C79 120 73 183 66 247 C60 311 53 376 46 440 C41 491 36 541 30 591 C25 641 20 691 14 741 C14 741 2 855 2 855 C2 858 2 861 1 863 C1 866 1 868 2 870 C2 870 16 870 16 870 C18 869 18 867 17 864 C17 862 16 859 16 857 C19 827 21 797 23 766 C26 736 29 705 32 674 C36 630 41 586 45 541 C50 497 55 452 59 407 C65 351 71 295 77 239 C83 183 89 127 95 70 C96 64 97 59 98 53 C100 47 101 41 102 35 C102 35 107 35 107 35 C109 39 109 41 110 45 C112 49 113 53 113 56 C127 125 139 193 151 260 C164 328 177 396 189 464 C193 486 198 507 202 529 C207 551 211 573 214 594 C219 621 223 647 227 673 C232 700 236 726 240 752 C241 759 242 764 243 767 C243 767 263 767 263 767 C265 761 266 756 266 749 C267 743 268 736 268 730 C272 703 276 676 279 649 C283 623 287 596 291 569 C300 511 309 455 317 397 C326 340 335 283 344 225 C348 199 352 173 356 147 C361 121 366 95 370 69 C374 69 376 69 377 68 C379 76 380 83 382 90 C384 98 386 105 387 112 C399 171 410 229 422 287 C434 346 446 405 458 463 C467 505 475 546 483 587 C491 629 500 670 508 712 C513 734 517 756 521 778 C525 800 530 823 534 845 C534 845 534 847 534 847 C536 851 537 855 537 861 C538 868 541 871 546 870 L546 870 Z " />
<glyph glyph-name="X" unicode="X" horiz-adv-x="405" d="M355 76 C355 76 355 76 355 76 C359 67 363 59 367 50 C372 42 376 33 379 23 C381 20 382 17 384 12 C386 8 385 4 379 1 C373 -2 369 -1 366 3 C364 8 362 12 360 16 C354 32 348 47 342 61 C336 76 330 91 323 106 C304 152 285 198 266 242 C248 287 229 332 209 378 C204 392 199 404 193 417 C187 431 181 444 175 457 C174 461 171 468 165 476 C161 466 157 458 155 452 C141 404 127 356 112 307 C98 259 83 210 69 161 C63 138 56 116 50 92 C44 69 38 46 32 22 C31 18 30 14 28 9 C26 5 21 3 11 4 C13 8 13 11 13 14 C13 18 14 21 15 24 C29 68 41 112 54 156 C68 200 81 244 94 288 C104 321 113 353 122 385 C132 418 141 450 151 482 C155 496 154 509 149 523 C134 558 120 593 105 627 C91 662 76 697 60 731 C52 751 43 770 34 790 C26 810 17 830 9 849 C8 853 6 855 4 859 C2 863 2 867 4 870 C4 870 21 870 21 870 C23 868 23 867 23 864 C24 862 25 859 25 857 C47 807 67 758 87 708 C108 658 129 608 149 558 C151 554 152 551 154 546 C156 542 159 536 161 530 C164 535 165 539 167 541 C169 544 171 547 171 549 C179 575 186 599 193 625 C201 651 208 677 215 702 C221 718 226 734 230 750 C235 766 240 782 244 798 C246 804 248 810 248 816 C249 823 250 830 251 836 C252 838 253 844 255 852 C257 861 259 867 260 870 C260 870 279 870 279 870 C279 865 279 859 277 852 C275 846 274 841 272 839 C257 788 242 737 226 686 C211 636 195 585 179 533 C173 515 174 497 182 479 C194 451 206 424 218 395 C230 367 242 338 254 310 C272 271 288 232 304 193 C321 155 338 116 355 76 L355 76 Z " />
<glyph glyph-name="Y" unicode="Y" horiz-adv-x="318" d="M270 870 C270 870 270 870 270 870 C270 870 286 870 286 870 C288 866 289 862 287 857 C281 842 275 827 268 811 C262 796 256 781 250 765 C236 726 223 688 209 648 C196 609 183 570 169 530 C167 525 165 520 162 514 C160 509 158 504 156 498 C154 490 153 482 152 474 C152 466 151 458 151 449 C150 422 150 396 148 369 C147 343 146 316 145 288 C144 246 144 206 143 164 C143 123 142 81 140 39 C140 35 140 32 140 27 C140 23 140 18 138 13 C138 11 138 10 136 8 C135 6 134 4 132 2 C126 6 123 9 123 13 C123 18 123 22 123 25 C124 49 125 72 125 94 C126 117 127 140 127 163 C129 203 129 242 130 282 C132 322 133 362 134 402 C135 416 135 428 135 440 C136 453 137 466 137 478 C138 496 132 511 119 525 C118 527 118 527 116 529 C115 531 114 533 113 535 C108 563 100 590 88 616 C77 643 66 670 56 696 C47 720 38 742 29 764 C21 787 12 810 2 832 C0 838 -1 842 -4 846 C-6 851 -9 856 -11 860 C-11 863 -12 866 -14 870 C-14 870 2 870 2 870 C15 838 27 807 39 775 C52 744 65 712 77 680 C87 658 96 637 105 614 C115 592 124 569 133 547 C135 545 135 542 137 539 C139 537 142 533 144 527 C148 533 151 538 153 542 C156 547 158 552 160 556 C160 556 238 772 238 772 C241 780 243 786 246 794 C250 802 253 810 255 818 C257 826 259 832 260 839 C262 847 264 854 266 861 C266 865 268 868 270 870 L270 870 Z " />
<glyph glyph-name="Z" unicode="Z" horiz-adv-x="396" d="M324 843 C324 843 324 843 324 843 C320 849 317 852 311 852 C306 853 301 853 296 853 C262 854 229 854 194 854 C160 854 125 855 91 855 C87 855 82 855 77 855 C73 855 69 859 65 866 C69 868 71 869 73 869 C75 870 78 870 80 870 C122 870 163 869 203 868 C244 868 285 867 326 865 C338 865 344 863 346 859 C349 855 348 848 343 838 C322 790 302 742 280 693 C259 645 238 596 217 547 C195 494 174 442 152 388 C131 335 110 281 88 227 C79 206 71 185 62 163 C54 142 45 121 36 99 C31 87 26 74 22 60 C18 47 14 34 8 20 C12 19 15 18 17 17 C20 17 23 16 25 16 C63 16 100 16 137 15 C175 15 212 14 250 14 C254 14 260 15 266 16 C272 17 276 17 277 15 C279 14 281 9 283 -1 C280 -1 278 -1 274 -2 C271 -2 268 -3 264 -3 C230 -2 197 -1 163 -1 C129 0 95 1 61 1 C57 2 53 2 48 1 C44 1 39 0 34 0 C31 0 29 0 25 -1 C22 -1 19 -1 15 -1 C4 1 -3 4 -7 8 C-10 13 -9 21 -5 32 C14 78 32 123 50 169 C69 215 88 261 107 307 C129 360 150 412 171 464 C193 517 214 570 235 623 C249 655 262 687 275 719 C289 752 302 784 315 816 C317 821 319 826 320 830 C322 835 323 839 324 843 L324 843 Z " />
<glyph glyph-name="bracketleft" unicode="&#x5b;" horiz-adv-x="138" d="M88 866 C88 866 88 866 88 866 C81 864 76 862 71 859 C67 857 61 858 55 862 C50 866 44 867 35 861 C27 856 22 850 20 842 C19 837 19 832 18 827 C18 823 17 818 17 812 C17 772 17 733 16 692 C16 652 15 611 14 571 C14 571 14 325 14 325 C14 325 14 177 14 177 C15 137 17 95 20 53 C20 43 25 33 33 25 C43 15 54 14 66 20 C70 22 75 23 79 24 C84 26 89 27 93 27 C87 20 81 15 73 9 C66 4 57 2 46 4 C36 6 28 10 19 19 C11 29 5 39 3 50 C2 57 1 64 1 70 C2 77 2 84 2 91 C2 144 1 196 1 248 C1 300 1 352 1 404 C2 448 2 491 2 533 C3 576 3 619 3 662 C3 723 2 783 0 843 C0 860 8 871 22 877 C42 886 60 886 76 877 C78 877 78 876 80 874 C82 872 85 870 88 866 L88 866 Z " />
<glyph glyph-name="backslash" unicode="&#x5c;" horiz-adv-x="159" d="M16 887 C16 887 16 887 16 887 C33 739 49 593 65 446 C81 300 98 152 114 3 C107 2 103 2 101 5 C99 9 98 13 97 17 C96 33 95 47 93 62 C91 78 90 93 88 108 C82 165 75 221 69 277 C63 333 57 390 50 446 C46 488 42 528 38 568 C34 609 30 650 25 691 C22 721 18 751 14 780 C10 810 6 839 2 869 C1 877 0 880 2 882 C4 884 9 886 16 887 L16 887 Z " />
<glyph glyph-name="bracketright" unicode="&#x5d;" horiz-adv-x="162" d="M20 43 C20 43 20 43 20 43 C21 38 21 33 21 29 C21 25 22 22 22 18 C30 15 38 14 46 16 C55 18 63 21 69 26 C76 32 81 38 85 45 C89 53 91 60 91 66 C91 90 92 113 92 135 C93 158 93 181 93 204 C95 247 95 289 95 331 C96 374 97 417 97 459 C98 487 98 515 98 541 C98 568 99 595 99 622 C99 656 99 688 99 720 C100 753 100 786 100 818 C100 828 99 837 96 845 C94 855 90 861 86 864 C82 868 76 869 66 869 C60 869 55 868 49 867 C43 867 38 866 32 865 C30 865 27 865 24 864 C22 864 18 863 14 862 C16 866 17 867 17 869 C18 871 19 873 20 874 C32 884 45 889 62 887 C80 886 93 880 103 870 C108 865 111 859 113 853 C116 847 117 840 116 832 C115 802 114 772 113 741 C113 711 112 680 111 649 C111 603 111 558 110 513 C110 469 109 423 108 377 C108 339 107 300 107 261 C107 223 107 184 106 145 C106 133 106 120 106 107 C107 95 107 82 105 69 C104 54 101 41 93 29 C86 18 75 10 59 4 C47 0 34 0 20 3 C11 6 7 10 6 18 C6 26 10 35 20 43 L20 43 Z " />
<glyph glyph-name="asciicircum" unicode="&#x5e;" horiz-adv-x="197" d="M77 908 C77 908 77 908 77 908 C72 893 68 879 62 865 C57 851 52 838 47 824 C43 811 39 798 34 785 C30 773 25 760 19 746 C17 739 10 732 0 725 C1 729 2 732 1 736 C1 740 1 744 2 747 C12 776 22 804 32 832 C42 860 52 889 62 917 C64 921 65 924 66 925 C69 927 71 928 74 930 C78 932 81 933 83 933 C89 932 93 928 95 921 C101 907 105 893 109 878 C114 864 119 849 123 834 C123 834 147 762 147 762 C150 755 151 750 151 746 C151 742 150 736 146 726 C140 736 135 746 132 756 C130 767 127 777 123 786 C119 796 117 806 113 816 C110 826 106 836 102 845 C98 855 95 865 92 875 C90 886 85 897 77 908 L77 908 Z " />
<glyph glyph-name="underscore" unicode="&#x5f;" horiz-adv-x="432" d="M0 835 C0 835 0 835 0 835 C4 837 6 838 9 838 C13 839 16 839 19 839 C76 839 132 839 188 838 C244 838 301 837 357 836 C361 836 365 836 369 836 C373 836 377 836 380 834 C385 833 387 831 387 827 C387 826 386 825 384 823 C382 822 381 821 379 819 C378 819 377 818 375 818 C373 819 372 819 370 819 C336 820 302 821 267 821 C233 822 198 823 163 823 C140 823 117 824 94 823 C72 823 49 822 25 821 C21 821 16 821 11 821 C7 822 3 827 0 835 L0 835 Z " />
<glyph glyph-name="grave" unicode="&#x60;" horiz-adv-x="124" d="M79 703 C79 703 79 703 79 703 C73 700 67 699 63 701 C59 703 56 706 53 710 C49 717 45 723 41 729 C37 736 34 743 30 750 C23 769 17 788 11 806 C5 825 2 845 0 865 C0 870 1 875 2 879 C4 884 5 889 6 893 C8 902 14 903 23 897 C16 881 13 864 17 848 C21 832 25 816 29 800 C35 783 41 766 48 749 C56 733 66 717 79 703 L79 703 Z " />
<glyph glyph-name="a" unicode="a" horiz-adv-x="210" d="M121 230 C121 230 121 230 121 230 C114 234 109 234 103 230 C98 227 93 223 88 219 C72 205 60 188 50 170 C41 152 34 133 30 112 C29 104 28 97 28 88 C28 80 29 71 29 63 C30 56 32 50 35 44 C39 39 44 35 51 33 C59 32 65 32 70 35 C76 39 80 43 84 48 C90 55 95 61 99 67 C104 73 109 79 113 85 C115 89 116 91 117 94 C119 98 119 101 119 104 C121 116 122 127 122 139 C123 151 124 163 124 174 C124 184 124 193 123 202 C123 212 122 221 121 230 L121 230 Z M112 65 C112 65 112 65 112 65 C111 63 111 61 109 58 C108 56 107 53 105 51 C103 48 101 45 99 42 C97 40 95 37 92 34 C86 28 81 24 74 18 C68 13 60 12 50 14 C28 22 15 37 11 59 C6 89 7 117 15 142 C24 168 37 192 55 214 C73 236 97 249 125 253 C127 277 127 301 125 324 C124 348 119 370 109 392 C105 404 98 411 86 413 C75 416 65 413 55 403 C50 398 46 393 41 385 C37 378 32 371 28 363 C27 361 26 358 24 355 C23 353 21 350 17 347 C17 349 17 351 15 353 C14 355 14 357 14 359 C16 374 21 386 29 397 C37 409 47 419 58 427 C69 435 80 435 90 429 C100 425 108 420 114 413 C121 407 126 398 129 386 C137 363 141 339 142 315 C144 291 144 267 143 242 C142 214 141 187 140 160 C140 134 140 106 140 78 C140 68 140 61 140 55 C141 49 141 45 143 40 C145 36 148 31 151 27 C155 23 159 18 165 11 C147 3 134 8 128 28 C127 34 127 38 125 44 C124 50 123 56 121 61 C117 63 114 64 112 65 L112 65 Z " />
<glyph glyph-name="b" unicode="b" horiz-adv-x="240" d="M50 191 C50 191 50 191 50 191 C50 191 50 191 50 191 C50 191 50 46 50 46 C51 37 54 30 59 24 C65 18 72 16 81 18 C93 22 103 26 113 30 C124 35 132 43 138 54 C148 74 156 93 161 111 C165 123 166 134 168 146 C170 158 172 170 173 181 C176 204 177 226 179 248 C181 271 180 294 174 316 C171 328 167 339 163 349 C159 360 152 369 142 376 C123 391 103 392 81 380 C73 375 66 370 59 362 C53 355 50 345 50 331 C52 308 53 285 52 261 C52 238 51 215 50 191 L50 191 Z M40 855 C40 855 40 855 40 855 C20 859 5 852 -5 834 C-9 842 -11 848 -9 855 C-7 863 -2 867 6 869 C12 871 16 872 22 872 C28 873 34 873 39 872 C51 872 56 864 56 850 C56 819 55 789 54 757 C54 726 53 694 53 662 C53 617 52 572 52 527 C52 483 52 438 52 393 C52 392 52 391 52 389 C53 387 53 386 53 384 C61 388 67 391 73 393 C79 396 86 399 93 401 C103 405 113 406 122 403 C132 401 141 396 149 390 C163 381 172 371 178 357 C184 344 188 330 190 314 C193 297 194 280 194 262 C195 245 194 228 191 210 C189 197 188 184 186 170 C184 156 183 142 181 128 C180 115 178 102 173 90 C169 78 163 66 157 54 C150 39 140 28 126 20 C112 13 98 8 82 4 C79 4 76 3 72 4 C69 6 66 7 62 8 C58 10 53 11 49 13 C45 15 41 18 35 20 C36 90 36 159 36 228 C37 298 37 367 37 437 C38 507 39 577 40 646 C42 716 42 785 40 855 L40 855 Z " />
<glyph glyph-name="c" unicode="c" horiz-adv-x="182" d="M126 95 C126 95 126 95 126 95 C132 91 134 88 135 83 C137 79 137 74 136 70 C135 52 128 38 116 26 C107 17 98 13 86 13 C75 14 66 20 58 30 C53 38 48 46 44 55 C40 65 37 74 33 83 C24 106 18 128 14 152 C11 176 8 200 6 223 C0 287 15 346 50 400 C58 412 67 421 77 427 C91 435 103 437 114 430 C126 424 132 413 133 397 C135 390 136 383 135 375 C135 368 132 361 128 354 C127 351 123 349 117 349 C119 353 120 355 120 358 C121 362 122 365 122 368 C123 374 123 379 123 385 C124 391 124 397 122 402 C121 410 117 415 109 418 C102 422 95 421 87 417 C83 415 80 413 76 409 C72 406 69 402 66 398 C61 389 56 381 50 371 C45 362 41 352 37 342 C20 292 16 239 26 183 C30 164 33 145 37 125 C42 105 48 86 55 67 C58 59 62 50 68 42 C76 32 83 28 93 28 C103 29 111 35 116 45 C119 51 121 55 121 61 C122 67 123 73 124 78 C125 81 125 84 125 86 C125 89 126 92 126 95 L126 95 Z " />
<glyph glyph-name="d" unicode="d" horiz-adv-x="285" d="M185 267 C185 267 185 267 185 267 C185 280 185 297 185 319 C186 341 186 364 186 387 C186 399 184 406 177 411 C171 417 162 418 150 415 C148 414 147 413 144 412 C142 412 140 411 138 409 C129 402 120 395 110 388 C101 382 92 374 84 366 C72 354 62 340 54 324 C47 308 41 292 35 274 C25 242 20 210 20 177 C21 145 25 112 31 78 C33 68 38 59 45 50 C53 42 61 35 71 31 C82 27 93 26 105 27 C117 29 129 34 141 42 C146 46 149 49 153 53 C157 58 162 62 166 65 C174 70 179 75 181 81 C183 87 184 94 184 102 C184 126 184 149 184 175 C185 201 185 232 185 267 L185 267 Z M180 54 C180 54 180 54 180 54 C176 51 174 48 171 46 C169 44 166 42 163 40 C157 36 150 33 144 28 C138 24 132 20 124 16 C102 6 81 6 59 16 C38 26 24 43 17 67 C10 91 6 114 4 137 C2 161 2 184 4 208 C6 232 9 254 16 275 C24 297 33 318 44 339 C55 359 68 376 84 390 C101 404 119 416 139 425 C145 428 151 429 159 429 C167 429 176 430 185 431 C186 437 187 442 187 449 C188 457 188 464 188 471 C189 536 190 600 190 664 C191 728 192 793 192 857 C192 861 193 865 192 870 C192 876 194 878 200 878 C208 878 212 877 210 871 C209 866 208 861 208 856 C208 847 208 837 207 827 C207 817 206 807 205 797 C205 797 202 620 202 620 C202 592 202 565 201 537 C201 510 200 482 200 454 C200 418 199 382 199 346 C199 310 199 274 199 238 C199 208 199 180 199 150 C199 121 200 91 200 61 C200 55 200 49 200 43 C201 37 201 32 201 26 C207 24 210 24 213 25 C217 27 220 28 222 30 C225 33 228 35 230 37 C233 40 236 41 239 40 C240 31 239 23 233 17 C228 11 221 8 213 7 C201 6 192 10 186 20 C184 25 182 30 182 35 C182 41 182 47 180 54 L180 54 Z " />
<glyph glyph-name="e" unicode="e" horiz-adv-x="268" d="M31 275 C31 275 31 275 31 275 C39 275 44 274 49 273 C55 273 59 273 63 274 C79 278 95 280 111 283 C127 287 143 290 159 294 C171 298 181 305 189 318 C198 332 202 345 200 357 C199 371 193 384 181 396 C170 409 158 417 144 419 C138 421 131 421 122 419 C114 418 106 416 98 412 C91 408 84 404 78 398 C72 392 68 386 65 380 C60 368 55 356 50 344 C46 332 41 320 37 307 C36 303 35 300 34 294 C34 289 33 283 31 275 L31 275 Z M35 249 C35 249 35 249 35 249 C31 224 31 199 33 174 C36 150 44 126 56 102 C56 102 68 78 68 78 C84 46 110 34 144 43 C150 45 154 47 158 51 C162 56 166 60 170 64 C176 70 181 75 185 81 C190 87 195 94 201 100 C203 94 204 88 203 84 C203 80 200 76 196 70 C192 64 187 57 177 47 C168 38 155 25 138 9 C135 10 133 11 129 11 C126 12 123 12 119 12 C104 11 91 13 81 20 C71 28 64 38 58 51 C51 66 44 80 38 95 C32 111 26 126 20 141 C18 143 17 146 17 149 C10 190 6 230 8 269 C10 309 22 347 43 384 C55 403 68 417 84 425 C101 434 120 438 140 437 C152 437 163 434 173 427 C183 421 191 413 198 403 C206 393 210 383 213 371 C217 360 217 349 215 339 C211 318 204 302 192 290 C181 279 165 271 143 267 C126 264 109 261 91 258 C73 256 55 253 35 249 L35 249 Z " />
<glyph glyph-name="f" unicode="f" horiz-adv-x="185" d="M143 816 C143 816 143 816 143 816 C142 823 142 829 140 833 C139 838 138 843 136 847 C133 862 125 870 111 870 C104 871 98 870 92 868 C86 866 82 862 78 854 C75 847 73 840 70 833 C68 827 68 819 72 809 C75 804 76 799 74 792 C72 786 71 779 71 773 C71 747 71 721 71 694 C71 668 72 641 72 614 C72 613 73 609 75 603 C75 603 131 603 131 603 C135 603 137 603 141 603 C145 604 149 604 152 604 C156 604 160 605 164 604 C168 604 170 600 168 594 C168 590 166 588 163 586 C161 585 157 585 151 585 C139 587 126 587 113 587 C101 587 88 587 74 587 C74 584 75 581 74 578 C74 576 73 573 73 570 C75 504 76 438 76 372 C77 307 78 241 79 174 C80 158 80 141 79 124 C79 108 77 91 74 74 C70 52 60 33 44 19 C37 13 30 10 21 9 C13 9 6 11 0 16 C-5 22 -8 26 -8 30 C-7 34 -3 39 4 45 C7 42 8 39 8 33 C8 28 12 25 18 25 C26 25 30 25 34 29 C38 33 42 38 45 43 C51 55 55 65 56 77 C58 89 59 101 60 112 C68 172 71 231 68 289 C66 348 64 407 62 466 C62 482 61 497 61 513 C61 529 61 545 61 560 C61 564 62 567 61 571 C61 575 60 579 60 582 C54 584 48 585 42 585 C36 585 31 586 24 585 C18 585 12 584 5 585 C-1 587 -8 589 -14 593 C-1 599 11 601 23 600 C35 600 47 601 58 604 C59 613 59 621 59 629 C60 638 60 646 59 654 C59 694 58 734 56 774 C56 780 57 784 55 788 C54 793 53 798 51 803 C47 831 55 856 75 877 C82 884 91 887 105 885 C119 884 130 880 137 873 C145 867 149 858 150 847 C152 837 149 826 143 816 L143 816 Z " />
<glyph glyph-name="g" unicode="g" horiz-adv-x="233" d="M188 143 C188 143 188 143 188 143 C188 140 187 136 187 132 C187 128 187 125 186 121 C182 89 179 56 179 23 C180 -9 179 -42 177 -75 C176 -96 173 -116 169 -137 C165 -157 159 -177 150 -197 C145 -210 138 -219 128 -227 C119 -234 110 -238 99 -241 C89 -243 78 -243 68 -241 C58 -238 50 -234 42 -228 C38 -224 35 -221 31 -216 C27 -210 25 -205 23 -200 C21 -188 21 -177 19 -165 C18 -153 17 -141 16 -130 C16 -126 16 -122 18 -119 C20 -115 24 -114 30 -114 C30 -121 30 -128 30 -135 C31 -141 31 -148 31 -156 C32 -161 32 -166 32 -172 C32 -177 33 -182 34 -188 C38 -207 46 -219 62 -226 C78 -232 94 -230 109 -219 C115 -214 119 -209 123 -203 C128 -197 132 -191 135 -185 C143 -169 148 -152 152 -135 C156 -117 159 -100 160 -82 C162 -64 162 -46 162 -28 C163 -10 164 8 164 26 C165 30 165 34 164 38 C164 43 163 49 162 56 C158 52 156 50 152 47 C149 45 146 42 143 39 C116 14 88 13 59 35 C41 49 27 63 16 81 C6 99 0 120 0 144 C0 175 0 205 2 235 C4 266 9 296 16 326 C24 354 36 379 51 401 C59 412 67 420 77 426 C88 432 100 435 113 435 C134 435 148 427 155 411 C161 398 165 385 167 370 C170 356 170 341 166 326 C166 325 166 324 164 322 C163 321 162 320 160 319 C156 321 154 323 154 325 C155 328 155 331 155 334 C154 344 153 352 153 361 C153 371 152 380 149 388 C146 404 138 413 124 417 C111 422 98 419 85 409 C75 401 66 391 58 378 C38 342 26 302 22 258 C20 237 19 217 19 196 C19 176 19 155 18 134 C18 107 29 86 49 70 C55 67 59 63 63 58 C67 54 72 50 77 46 C99 30 118 32 135 53 C145 65 152 77 158 90 C165 104 168 118 167 134 C167 142 168 146 170 147 C173 149 179 147 188 143 L188 143 Z " />
<glyph glyph-name="h" unicode="h" horiz-adv-x="305" d="M40 11 C40 11 40 11 40 11 C40 17 39 21 38 25 C38 30 37 34 37 38 C37 38 40 398 40 398 C41 456 42 514 42 571 C43 629 44 687 45 745 C45 753 45 761 46 769 C48 777 49 785 49 793 C50 799 50 805 50 811 C51 817 51 823 51 829 C51 840 47 847 38 849 C28 853 19 850 13 841 C11 838 10 835 8 832 C7 830 6 827 4 823 C2 820 1 818 -1 814 C-3 811 -5 807 -8 801 C-11 811 -13 816 -13 816 C-10 823 -7 829 -5 835 C-2 842 1 848 5 853 C13 867 24 871 39 866 C55 863 63 854 65 840 C67 834 67 828 67 822 C68 816 68 810 68 804 C67 782 66 760 64 737 C62 715 61 692 59 668 C57 634 56 600 56 565 C56 547 55 529 55 510 C55 492 55 473 55 454 C55 452 55 451 55 448 C56 446 57 442 57 438 C64 443 69 446 75 450 C81 454 87 458 92 462 C100 469 109 471 120 467 C136 464 149 459 161 450 C173 442 181 428 184 410 C187 396 188 381 190 367 C192 353 193 339 191 324 C190 312 189 300 190 288 C192 276 192 264 192 252 C192 222 192 193 192 163 C192 133 193 103 193 73 C193 63 196 52 200 40 C202 36 204 32 207 28 C211 25 215 23 220 23 C226 23 230 25 233 28 C237 32 240 36 242 41 C244 45 244 49 246 53 C248 58 251 64 253 70 C255 66 257 63 258 60 C260 58 260 55 260 52 C260 37 255 25 244 16 C237 9 229 6 219 6 C209 7 201 11 193 19 C182 31 176 45 176 63 C176 89 176 114 176 139 C177 165 177 190 176 215 C176 231 176 245 175 261 C175 277 174 293 173 309 C173 315 174 318 174 320 C177 336 178 351 176 365 C174 380 172 395 168 409 C165 423 158 434 144 442 C131 451 118 454 105 452 C92 451 80 445 69 433 C59 422 53 410 53 396 C53 373 52 350 52 326 C53 303 53 280 52 256 C52 231 53 206 52 181 C52 157 51 132 51 106 C51 95 52 84 52 72 C53 60 54 49 54 37 C54 33 54 29 53 24 C53 20 48 15 40 11 L40 11 Z " />
<glyph glyph-name="i" unicode="i" horiz-adv-x="150" d="M36 417 C36 417 36 417 36 417 C42 414 44 411 44 405 C44 400 44 395 44 390 C44 376 44 362 43 347 C43 333 42 318 41 303 C41 290 41 278 41 265 C41 253 41 240 40 227 C40 213 39 200 37 186 C35 172 35 158 36 144 C37 129 39 115 41 99 C44 84 47 69 49 53 C49 51 49 49 50 47 C52 45 53 43 54 41 C66 26 77 26 88 40 C90 42 90 44 92 46 C94 49 96 51 98 53 C98 53 102 53 102 53 C106 37 99 24 82 16 C76 13 69 11 60 13 C52 15 45 20 40 27 C34 39 29 52 25 67 C22 89 20 110 19 131 C19 153 19 174 20 195 C21 217 22 237 22 259 C23 281 24 303 24 324 C25 336 26 348 25 360 C25 373 25 386 25 398 C25 402 25 405 25 409 C26 413 30 416 36 417 L36 417 Z M32 472 C32 472 32 472 32 472 C20 471 15 464 16 451 C17 444 22 440 30 440 C36 440 40 441 43 444 C47 448 49 452 49 456 C49 467 44 472 32 472 L32 472 Z M64 454 C64 454 64 454 64 454 C64 446 62 440 56 434 C50 428 43 425 33 424 C24 424 17 426 10 432 C4 438 0 446 0 455 C0 465 4 472 10 479 C17 487 25 491 33 491 C41 491 48 489 54 481 C60 474 64 465 64 454 L64 454 Z " />
<glyph glyph-name="j" unicode="j" horiz-adv-x="191" d="M29 22 C29 22 29 22 29 22 C26 14 23 5 19 -3 C16 -11 13 -19 9 -28 C1 -53 2 -80 12 -109 C16 -117 20 -124 25 -130 C31 -136 38 -139 47 -141 C69 -143 85 -135 96 -117 C100 -111 103 -105 105 -99 C108 -93 107 -86 103 -78 C102 -74 102 -71 102 -67 C103 -63 103 -59 103 -55 C103 -7 103 40 103 88 C103 136 104 184 104 232 C104 262 104 292 104 322 C105 352 105 382 105 412 C106 416 107 419 106 423 C106 428 108 433 113 437 C115 434 115 431 116 429 C118 427 118 425 118 423 C118 373 118 325 117 275 C117 226 116 176 116 126 C116 102 116 78 116 53 C117 29 118 4 118 -21 C118 -28 119 -35 118 -43 C118 -51 120 -58 125 -65 C126 -66 126 -68 126 -70 C127 -77 126 -85 122 -95 C119 -104 114 -112 108 -121 C102 -129 97 -137 89 -143 C82 -149 75 -153 67 -155 C46 -160 28 -155 14 -141 C-1 -123 -10 -102 -12 -78 C-13 -62 -13 -47 -10 -32 C-6 -16 0 -2 9 11 C11 15 13 18 15 20 C18 23 23 24 29 22 L29 22 Z M115 493 C115 493 115 493 115 493 C110 493 106 492 102 487 C99 483 98 478 98 472 C99 465 104 461 113 461 C119 461 123 462 126 465 C130 469 131 473 131 478 C131 488 126 493 115 493 L115 493 Z M146 476 C146 476 146 476 146 476 C146 468 144 461 138 455 C132 449 125 446 115 446 C106 446 98 448 92 454 C86 460 83 468 83 477 C83 486 85 494 92 501 C100 509 107 512 115 512 C124 512 130 510 136 502 C142 495 146 486 146 476 L146 476 Z " />
<glyph glyph-name="k" unicode="k" horiz-adv-x="344" d="M56 428 C56 428 56 428 56 428 C56 359 56 292 58 224 C60 157 62 90 63 22 C57 22 53 23 51 25 C50 28 49 31 49 35 C49 61 48 85 48 111 C48 137 48 163 48 188 C48 188 45 392 45 392 C45 439 45 485 44 531 C44 577 43 623 41 669 C41 689 42 707 41 727 C41 747 40 767 39 786 C39 791 40 795 40 799 C41 804 42 809 42 813 C44 828 40 837 31 840 C25 842 21 843 16 840 C12 838 8 834 4 829 C1 825 -1 822 -3 817 C-4 813 -6 808 -9 803 C-11 800 -13 797 -17 795 C-18 797 -19 798 -21 799 C-23 801 -24 802 -25 804 C-26 810 -25 815 -23 821 C-20 827 -17 833 -13 838 C-9 844 -5 847 1 851 C7 855 13 858 17 858 C29 860 38 857 46 849 C54 841 58 832 57 820 C57 800 57 781 56 760 C56 740 55 719 54 699 C54 661 54 624 54 586 C55 548 56 510 56 472 C56 467 56 462 56 456 C56 450 60 446 66 442 C74 438 80 435 88 433 C96 431 105 432 113 436 C126 442 137 449 147 457 C157 466 166 477 173 489 C181 503 187 516 192 530 C198 545 201 560 203 575 C209 611 210 646 207 681 C205 717 201 752 197 788 C197 792 196 798 196 807 C200 805 202 804 204 802 C206 801 208 800 209 798 C211 797 211 795 211 793 C212 791 213 789 213 787 C219 751 222 715 225 678 C229 642 226 605 218 568 C213 545 205 522 195 500 C185 478 171 458 152 440 C166 421 175 400 180 378 C186 356 189 334 191 311 C193 299 194 286 196 274 C198 262 200 250 201 237 C203 220 205 203 206 185 C208 167 210 150 212 132 C214 122 215 112 217 101 C220 91 223 81 226 71 C229 64 233 58 237 51 C242 45 247 38 251 32 C253 29 256 27 259 25 C263 23 267 24 271 26 C279 31 282 39 278 49 C277 52 276 54 274 56 C273 58 272 61 270 63 C276 66 281 67 283 63 C286 60 288 57 290 53 C300 37 297 23 283 11 C277 6 271 3 263 3 C256 4 250 8 244 14 C238 22 232 30 225 38 C219 47 214 56 210 65 C203 83 199 101 196 119 C194 138 192 157 190 176 C190 192 188 206 186 222 C184 238 182 254 180 270 C178 288 176 305 173 321 C171 338 168 355 164 372 C162 382 159 393 155 404 C151 414 147 421 141 423 C135 426 127 425 117 421 C103 416 90 416 77 422 C75 424 73 425 69 425 C66 426 62 427 56 428 L56 428 Z " />
<glyph glyph-name="l" unicode="l" horiz-adv-x="133" d="M79 50 C79 50 79 50 79 50 C83 48 86 47 86 46 C88 34 83 24 69 15 C57 8 46 9 37 17 C30 24 24 30 18 38 C13 46 9 55 7 65 C6 74 5 82 3 90 C2 99 2 108 4 117 C6 124 6 131 5 137 C5 144 4 151 4 158 C5 189 5 219 5 249 C5 279 6 310 6 340 C6 340 6 570 6 570 C6 570 6 768 6 768 C6 768 6 849 6 849 C6 853 7 855 7 859 C8 863 9 867 9 871 C16 870 19 869 20 865 C22 862 22 859 22 855 C22 842 21 830 21 817 C21 805 21 792 21 779 C21 737 20 694 19 652 C19 610 18 568 17 525 C17 493 17 461 16 429 C16 397 15 365 15 332 C16 290 17 249 18 207 C20 165 21 123 22 81 C22 73 23 66 26 58 C30 51 34 44 39 37 C50 23 61 24 71 38 C73 40 74 42 75 44 C77 46 78 48 79 50 L79 50 Z " />
<glyph glyph-name="m" unicode="m" horiz-adv-x="349" d="M297 53 C297 53 297 53 297 53 C304 41 302 32 292 24 C280 14 268 11 254 15 C234 23 224 39 222 63 C222 75 222 87 222 99 C222 111 222 123 221 135 C221 165 221 195 220 223 C220 252 219 281 218 310 C218 318 217 325 217 331 C218 338 218 345 217 351 C217 365 216 378 214 390 C212 399 210 405 204 409 C199 414 193 416 186 414 C179 413 172 409 165 402 C159 396 156 389 156 381 C162 333 163 285 159 236 C155 188 153 139 153 90 C153 87 153 83 153 79 C154 75 154 72 153 68 C153 66 153 64 151 61 C150 59 149 56 147 54 C139 56 135 59 133 63 C132 68 131 73 131 78 C133 98 133 117 134 135 C136 154 137 173 137 192 C139 218 140 243 140 267 C141 292 142 317 142 342 C142 350 142 356 140 363 C138 371 137 378 135 385 C133 396 129 402 123 404 C118 406 111 405 101 400 C75 388 63 367 65 338 C67 319 67 300 66 280 C66 260 66 241 66 221 C67 204 68 187 69 169 C71 152 71 135 70 117 C70 106 70 96 68 84 C67 73 63 62 56 52 C44 63 40 76 46 92 C48 97 49 102 49 106 C50 111 50 116 50 121 C50 161 51 201 50 240 C50 280 49 319 49 359 C49 363 49 365 49 369 C50 373 50 377 48 380 C46 386 41 391 35 393 C34 394 33 394 29 392 C26 390 23 389 21 387 C19 385 17 383 15 379 C13 376 11 372 7 368 C6 372 5 374 3 376 C1 378 1 380 1 381 C3 386 6 391 8 395 C11 400 14 404 17 407 C27 417 42 414 64 398 C76 406 85 412 92 416 C100 420 105 422 110 423 C116 425 120 424 125 422 C131 420 137 417 145 412 C147 414 150 416 152 417 C168 429 179 435 189 434 C199 434 210 426 222 412 C226 409 228 405 229 401 C231 397 232 393 232 389 C234 364 234 339 235 313 C237 287 238 262 239 236 C239 236 242 71 242 71 C242 68 242 64 242 60 C242 56 243 53 244 49 C250 30 262 27 280 39 C284 41 286 43 288 45 C291 48 294 51 297 53 L297 53 Z " />
<glyph glyph-name="n" unicode="n" horiz-adv-x="335" d="M52 20 C52 20 52 20 52 20 C51 25 50 29 48 33 C46 38 45 42 45 46 C46 77 46 107 46 137 C47 167 48 198 49 228 C50 256 50 282 50 308 C51 335 52 362 52 389 C52 395 53 400 52 405 C52 411 48 414 40 415 C33 417 29 415 25 410 C22 406 19 401 16 395 C15 393 14 390 12 387 C11 385 9 381 7 376 C6 379 5 380 3 382 C1 384 1 386 1 386 C4 393 7 399 9 405 C12 412 16 418 20 423 C30 432 37 436 43 433 C50 431 60 422 73 408 C78 412 82 415 86 417 C91 420 96 423 101 426 C113 434 123 438 131 436 C140 435 151 430 163 420 C176 411 185 400 191 386 C197 373 202 359 204 343 C210 308 212 274 212 238 C213 203 214 168 214 132 C214 119 214 107 216 93 C218 80 222 67 227 54 C228 52 229 51 229 48 C230 46 231 44 232 42 C235 40 238 38 241 35 C245 33 248 31 251 31 C253 31 255 33 257 36 C260 40 262 43 263 46 C266 52 268 56 269 61 C271 67 272 73 274 79 C282 74 287 69 285 63 C284 57 283 52 282 46 C281 36 278 28 272 21 C266 15 260 11 252 10 C246 10 238 12 229 18 C221 24 215 31 212 39 C208 53 204 66 199 80 C195 94 193 109 194 124 C196 151 196 177 194 203 C193 241 191 277 188 313 C187 323 187 332 185 340 C184 349 182 357 179 365 C177 373 174 380 169 386 C165 393 160 399 155 405 C153 409 150 410 145 412 C141 414 136 416 132 416 C127 417 121 416 114 412 C108 409 101 406 95 400 C89 395 85 389 80 383 C76 377 73 371 72 365 C71 350 70 336 69 321 C69 307 68 292 67 276 C67 236 66 197 66 158 C66 120 66 81 65 41 C65 38 64 35 63 31 C63 28 62 25 61 21 C57 21 54 21 52 20 L52 20 Z " />
<glyph glyph-name="o" unicode="o" horiz-adv-x="206" d="M115 280 C115 280 115 280 115 280 C113 282 111 284 105 286 C100 288 95 290 89 292 C84 294 79 296 74 297 C70 299 66 299 64 299 C59 299 55 299 51 295 C48 292 46 288 46 282 C46 275 47 269 53 263 C59 258 67 256 75 257 C93 259 106 267 115 280 L115 280 Z M30 265 C30 265 30 265 30 265 C28 261 27 258 25 255 C23 253 22 250 21 246 C19 233 16 220 13 206 C11 193 9 180 7 166 C6 151 7 136 9 122 C12 108 16 94 20 79 C26 59 39 43 59 30 C81 16 100 18 117 35 C129 47 137 61 142 78 C150 100 153 120 154 141 C156 163 156 184 154 205 C153 217 150 227 146 237 C142 247 138 258 132 268 C127 265 123 263 119 260 C115 258 112 256 108 254 C95 248 83 244 72 243 C62 243 51 248 40 258 C39 260 36 263 30 265 L30 265 Z M40 428 C40 428 40 428 40 428 C37 425 35 422 31 420 C28 418 26 416 24 413 C21 405 20 397 22 389 C24 385 26 383 30 382 C34 382 38 382 42 383 C42 383 75 389 75 389 C81 392 87 394 92 394 C111 398 125 395 136 386 C148 378 153 365 153 347 C152 332 149 317 144 303 C143 298 143 294 142 290 C142 286 143 282 145 276 C160 246 167 217 169 185 C171 154 168 122 159 90 C156 80 152 70 148 60 C144 50 139 41 131 31 C121 19 110 13 94 9 C79 6 65 9 51 17 C28 31 12 50 4 76 C-1 94 -4 111 -8 128 C-11 146 -11 163 -9 181 C-5 199 -2 216 0 233 C3 251 9 267 19 283 C25 293 31 300 39 304 C48 309 57 313 66 315 C72 317 77 316 82 314 C88 312 93 310 98 308 C114 303 123 301 127 303 C131 306 135 315 137 330 C139 337 139 343 138 349 C138 355 136 361 132 367 C126 379 117 383 105 380 C100 379 94 378 88 377 C82 377 77 376 71 374 C60 372 48 370 34 368 C26 368 20 370 14 374 C9 379 6 385 4 392 C3 400 3 407 7 415 C11 423 17 429 23 431 C25 431 25 431 26 431 C28 432 29 432 30 431 C32 431 33 431 34 430 C36 430 38 429 40 428 L40 428 Z " />
<glyph glyph-name="p" unicode="p" horiz-adv-x="271" d="M83 115 C83 115 83 115 83 115 C97 114 107 113 116 113 C126 114 134 115 140 118 C147 122 152 126 158 132 C164 138 170 146 176 156 C180 162 182 167 185 173 C189 179 192 185 195 191 C213 225 217 258 208 290 C200 323 185 353 163 379 C150 395 136 401 120 398 C104 396 92 385 84 365 C82 362 82 359 81 354 C81 350 80 345 80 340 C79 320 78 301 77 281 C77 261 77 241 77 221 C77 204 78 187 79 169 C81 151 82 133 83 115 L83 115 Z M-7 -241 C-7 -241 -7 -241 -7 -241 C-2 -251 2 -260 6 -268 C12 -278 18 -283 27 -284 C37 -284 45 -280 51 -271 C59 -262 62 -252 62 -240 C63 -192 63 -144 62 -98 C62 -71 62 -45 62 -19 C62 7 62 33 61 59 C60 99 60 138 58 177 C57 217 56 256 54 295 C54 307 54 319 55 331 C57 343 57 355 57 367 C57 374 57 381 55 387 C54 394 53 401 51 407 C45 409 42 409 38 407 C35 405 32 404 30 400 C28 397 27 395 25 391 C23 388 21 385 18 383 C12 384 10 386 8 389 C7 393 7 396 8 400 C11 408 14 414 18 420 C23 426 30 430 38 431 C48 434 55 433 61 426 C67 420 73 412 78 403 C85 407 92 411 98 413 C125 427 150 424 174 402 C188 390 199 375 209 357 C219 339 226 321 230 300 C234 280 236 258 232 236 C229 214 222 193 210 172 C204 158 196 145 186 133 C168 106 142 92 109 91 C106 91 103 90 99 90 C96 90 92 90 86 89 C86 84 86 80 85 75 C85 71 84 66 84 61 C84 14 84 -32 84 -80 C85 -127 85 -175 84 -223 C84 -241 81 -258 75 -273 C72 -284 65 -292 53 -298 C41 -303 30 -304 19 -302 C10 -300 3 -294 -4 -285 C-10 -275 -13 -265 -13 -254 C-13 -252 -13 -252 -12 -250 C-10 -248 -9 -245 -7 -241 L-7 -241 Z " />
<glyph glyph-name="q" unicode="q" horiz-adv-x="313" d="M145 -226 C145 -226 145 -226 145 -226 C159 -221 170 -210 178 -194 C180 -192 180 -190 179 -188 C179 -185 178 -183 176 -182 C174 -176 167 -171 157 -167 C147 -162 139 -160 133 -162 C127 -163 123 -167 118 -173 C114 -179 111 -186 109 -196 C108 -206 110 -213 117 -220 C125 -226 134 -228 145 -226 L145 -226 Z M126 -32 C126 -32 126 -32 126 -32 C131 -42 133 -51 130 -60 C128 -68 123 -77 117 -85 C112 -91 107 -95 100 -95 C94 -95 87 -94 79 -93 C55 -88 36 -73 24 -49 C15 -29 10 -10 6 10 C3 31 1 52 1 73 C1 99 1 124 2 150 C4 177 6 203 8 228 C10 240 11 251 15 262 C19 274 23 285 26 296 C28 302 30 307 32 312 C35 318 37 323 37 328 C41 350 49 369 63 383 C78 398 93 412 108 424 C117 431 126 435 138 435 C150 436 162 434 173 430 C185 426 194 421 203 412 C213 404 219 394 223 383 C233 359 239 334 243 308 C247 283 250 258 250 232 C251 176 249 119 245 63 C241 7 235 -49 227 -105 C226 -115 225 -126 221 -136 C218 -146 215 -156 211 -166 C206 -180 207 -193 213 -205 C217 -212 219 -219 223 -227 C227 -234 231 -241 235 -249 C241 -258 248 -265 256 -269 C265 -273 275 -273 286 -270 C286 -270 297 -270 297 -270 C292 -282 286 -289 279 -292 C273 -294 264 -293 253 -288 C243 -282 234 -277 226 -269 C218 -261 212 -251 207 -240 C206 -236 205 -233 202 -229 C200 -225 197 -220 194 -216 C189 -219 184 -222 180 -225 C176 -227 172 -230 167 -234 C156 -241 143 -244 128 -242 C114 -240 103 -234 95 -224 C91 -218 89 -212 88 -205 C88 -197 88 -190 90 -183 C92 -175 95 -169 99 -163 C103 -156 108 -151 114 -148 C124 -142 132 -141 141 -143 C151 -145 160 -147 169 -151 C173 -152 176 -153 179 -156 C183 -158 186 -161 190 -164 C196 -154 199 -145 201 -135 C204 -125 206 -114 207 -104 C210 -80 213 -57 215 -33 C218 -9 221 15 223 38 C227 70 229 102 229 134 C231 160 231 186 231 212 C231 238 229 264 224 290 C222 304 219 316 216 329 C214 343 211 356 207 369 C203 383 195 394 182 402 C170 411 156 415 141 413 C132 413 123 409 113 401 C82 371 60 336 47 294 C39 266 33 239 29 211 C25 184 23 156 21 128 C21 108 21 88 20 67 C20 47 21 26 24 6 C27 -9 32 -22 38 -35 C45 -47 56 -57 70 -65 C80 -70 88 -73 93 -71 C99 -69 104 -62 108 -52 C112 -44 114 -40 115 -39 C117 -37 120 -35 126 -32 L126 -32 Z " />
<glyph glyph-name="r" unicode="r" horiz-adv-x="202" d="M157 427 C157 427 157 427 157 427 C145 423 135 417 124 407 C114 398 105 388 97 376 C89 365 84 354 79 340 C75 327 72 314 72 302 C72 258 72 214 72 170 C73 126 74 82 74 38 C74 25 73 18 70 14 C68 11 59 9 45 7 C46 41 46 75 46 107 C47 140 48 173 49 207 C51 241 52 274 51 306 C51 339 50 372 50 406 C44 406 39 405 35 401 C32 397 29 393 26 389 C24 385 22 383 18 379 C15 376 10 375 4 376 C2 389 4 400 8 410 C13 420 20 427 30 429 C38 432 44 432 49 430 C55 428 58 425 61 420 C65 416 67 411 69 405 C72 399 75 394 77 389 C83 393 88 396 92 401 C97 407 101 411 105 416 C110 422 114 426 119 430 C125 434 131 437 138 437 C144 437 148 437 150 435 C152 435 154 432 157 427 L157 427 Z " />
<glyph glyph-name="s" unicode="s" horiz-adv-x="240" d="M109 259 C109 259 109 259 109 259 C111 260 112 260 112 260 C113 260 114 261 114 261 C116 283 117 303 118 325 C120 347 119 369 115 390 C115 392 114 394 114 396 C114 399 114 401 112 402 C110 405 109 407 106 410 C104 414 101 416 97 416 C95 417 92 416 88 414 C84 412 82 410 80 407 C77 402 74 396 72 390 C70 384 69 378 69 372 C71 355 73 339 77 321 C82 304 89 288 98 272 C100 270 101 267 103 265 C105 263 107 261 109 259 L109 259 Z M-26 66 C-26 66 -26 66 -26 66 C-23 66 -21 65 -19 65 C-16 65 -14 65 -12 63 C-8 61 -6 58 -4 54 C-2 51 1 48 4 45 C21 29 35 31 47 49 C53 57 57 64 61 72 C66 81 70 90 73 98 C79 114 84 128 89 144 C95 160 100 176 105 191 C108 201 108 209 106 217 C104 225 101 233 96 240 C91 250 86 258 80 267 C75 277 70 286 64 296 C57 312 53 327 51 343 C50 360 50 377 52 394 C53 398 54 402 56 406 C58 411 61 415 63 418 C69 424 74 428 80 432 C87 436 94 437 102 434 C110 432 116 429 121 423 C127 417 130 410 131 401 C133 390 133 379 134 367 C136 356 136 345 135 333 C135 318 136 303 134 287 C133 271 132 256 130 240 C130 234 130 228 132 223 C135 219 138 214 141 208 C155 186 166 163 176 139 C187 116 193 90 194 62 C196 49 192 37 180 26 C169 16 155 10 139 8 C126 7 116 12 106 24 C97 37 94 50 97 64 C99 70 101 74 103 78 C106 83 109 87 112 91 C116 85 118 79 119 73 C121 67 120 61 117 54 C116 49 116 45 116 40 C117 36 120 32 125 28 C133 23 142 23 152 28 C164 34 171 44 173 57 C174 61 174 63 174 66 C175 70 175 73 174 76 C171 97 166 116 156 134 C147 153 136 171 124 188 C119 173 114 159 109 144 C105 130 99 115 93 101 C89 91 86 81 80 71 C75 61 69 52 62 43 C51 27 39 20 26 19 C14 19 1 26 -13 40 C-16 44 -19 46 -21 50 C-23 54 -25 58 -29 61 C-28 62 -27 64 -26 66 L-26 66 Z " />
<glyph glyph-name="t" unicode="t" horiz-adv-x="196" d="M47 465 C47 465 47 465 47 465 C43 468 39 470 34 470 C30 471 26 472 21 472 C17 473 13 475 9 477 C5 480 2 485 0 491 C6 493 12 494 16 494 C21 495 26 496 31 496 C44 497 50 504 50 517 C50 529 50 540 50 550 C51 561 51 572 51 583 C51 607 51 629 51 651 C51 674 51 697 50 720 C50 727 51 731 53 735 C56 739 61 742 68 743 C68 703 67 663 65 622 C64 582 64 541 65 499 C76 500 86 500 94 500 C103 500 112 501 120 502 C126 503 132 503 136 501 C141 500 145 497 148 491 C142 483 136 478 126 477 C117 477 108 476 100 474 C90 474 84 473 78 471 C73 469 69 468 67 464 C65 461 64 457 64 451 C64 446 64 439 64 431 C64 385 63 339 63 292 C63 246 63 199 63 152 C63 146 64 140 65 134 C67 128 68 122 69 115 C70 108 71 100 71 92 C72 84 72 76 72 68 C73 61 73 54 74 47 C76 41 80 36 88 32 C96 29 102 29 107 34 C113 40 118 45 123 50 C127 54 131 57 133 63 C136 69 142 72 151 72 C151 61 150 52 144 43 C139 35 132 27 124 21 C118 17 113 14 105 10 C98 7 90 7 81 11 C72 15 66 21 62 28 C58 36 56 44 54 53 C48 83 46 113 47 143 C49 173 49 204 49 234 C49 268 48 301 48 335 C49 369 49 403 49 437 C49 442 50 447 49 451 C49 456 48 461 47 465 L47 465 Z " />
<glyph glyph-name="u" unicode="u" horiz-adv-x="332" d="M194 68 C194 68 194 68 194 68 C185 63 177 57 169 51 C161 45 153 40 144 36 C124 27 107 26 93 33 C79 41 71 55 67 76 C65 93 63 110 63 127 C63 145 64 162 64 179 C65 205 66 231 67 257 C69 284 70 310 70 336 C70 344 70 352 68 360 C67 368 66 376 64 383 C62 389 60 394 56 400 C51 408 46 412 38 412 C31 412 25 409 19 401 C17 399 16 396 14 393 C12 391 10 387 6 382 C5 386 4 389 2 391 C1 394 1 396 1 398 C3 406 6 414 10 420 C15 427 22 431 30 433 C40 435 48 434 54 429 C61 425 67 419 72 411 C80 399 84 387 86 373 C89 359 90 345 89 331 C88 295 88 260 86 223 C85 187 84 150 82 113 C82 106 81 99 83 91 C85 84 87 77 89 69 C93 59 98 52 106 48 C115 45 124 46 134 51 C146 57 156 65 166 74 C176 84 185 94 192 105 C194 109 196 113 196 117 C197 122 197 126 197 130 C197 130 197 357 197 357 C197 365 197 373 196 381 C196 389 195 397 195 405 C195 409 194 413 194 419 C194 425 195 430 195 434 C203 433 208 429 210 421 C212 413 213 407 213 401 C214 389 214 377 214 365 C214 353 214 341 214 329 C215 301 215 273 215 244 C215 216 215 187 215 158 C215 126 216 94 218 62 C218 56 219 49 219 42 C220 36 224 31 232 28 C240 25 247 25 251 30 C256 36 261 41 265 45 C269 49 271 52 274 55 C278 59 281 62 284 66 C285 58 284 49 280 41 C276 33 271 27 265 21 C259 16 252 13 244 10 C236 8 229 8 221 10 C215 12 210 16 207 20 C205 25 203 30 201 36 C200 42 200 47 198 52 C197 58 196 63 194 68 L194 68 Z " />
<glyph glyph-name="v" unicode="v" horiz-adv-x="268" d="M158 371 C162 384 164 393 162 397 C160 402 155 407 145 412 C139 402 136 394 138 388 C140 382 147 377 158 371 L158 371 Z M161 343 C161 343 161 343 161 343 C148 349 138 356 130 365 C123 375 119 387 119 402 C119 412 120 418 123 421 C127 425 134 430 145 436 C151 433 155 430 158 427 C162 425 164 422 166 417 C169 413 172 406 174 398 C177 390 180 379 184 365 C190 366 194 366 200 366 C206 366 214 366 223 366 C218 362 214 358 210 354 C206 351 202 349 198 347 C189 345 184 340 181 334 C179 328 178 321 178 313 C180 288 179 263 176 238 C174 214 170 189 164 165 C160 147 156 130 150 112 C144 95 138 78 131 60 C126 46 118 34 107 24 C95 12 83 7 67 9 C52 12 39 21 29 35 C26 41 24 45 21 51 C19 57 16 63 14 69 C9 87 6 104 6 122 C6 140 6 158 5 175 C4 206 4 236 3 266 C3 296 2 326 0 356 C0 362 1 367 2 373 C4 379 8 385 16 390 C18 386 19 383 19 379 C20 376 20 373 20 369 C21 341 21 315 21 287 C21 260 22 232 23 204 C24 188 24 172 25 156 C27 140 28 124 30 108 C32 96 33 84 37 72 C41 61 48 51 57 41 C67 32 75 27 81 27 C88 27 95 33 101 44 C108 56 114 66 120 78 C127 90 132 103 135 115 C146 151 154 187 158 224 C163 262 165 299 163 337 C163 339 164 340 163 340 C163 341 162 342 161 343 L161 343 Z " />
<glyph glyph-name="w" unicode="w" horiz-adv-x="402" d="M187 354 C187 354 187 354 187 354 C187 334 186 315 186 296 C186 278 186 259 185 239 C184 211 184 184 186 156 C189 128 193 100 198 72 C199 70 199 68 199 65 C200 63 201 60 201 56 C205 43 212 35 220 32 C229 30 237 34 245 44 C249 49 253 53 255 59 C258 65 260 71 262 77 C277 122 284 169 284 219 C285 241 286 262 285 284 C285 306 284 328 284 349 C284 361 285 372 286 382 C288 393 291 403 296 412 C306 428 319 434 335 432 C345 432 352 425 355 412 C357 400 352 392 340 390 C340 397 338 404 334 412 C320 416 312 409 308 392 C307 383 306 374 304 365 C303 357 302 348 302 338 C302 318 302 297 302 276 C303 256 303 235 303 214 C303 190 301 167 297 143 C293 120 288 97 281 74 C278 61 273 49 266 38 C260 28 250 20 236 15 C225 12 217 12 209 15 C202 19 196 27 191 40 C188 48 186 55 184 63 C183 71 182 79 180 87 C179 94 178 100 177 106 C177 113 176 119 174 125 C173 130 170 134 166 137 C163 125 160 113 157 101 C155 89 152 77 149 64 C145 42 136 26 122 15 C105 2 89 4 73 20 C59 36 53 55 54 78 C56 109 56 140 57 170 C59 201 59 232 59 262 C59 282 59 300 57 319 C55 339 54 358 52 377 C51 385 49 391 46 395 C42 405 38 409 33 411 C29 413 22 412 14 406 C12 405 11 404 8 404 C6 405 3 405 0 404 C2 408 2 410 2 413 C3 417 4 419 5 421 C13 431 21 434 31 432 C41 430 50 423 56 411 C60 406 62 401 64 395 C66 389 68 384 68 378 C70 361 71 343 73 325 C75 307 76 289 76 271 C76 243 77 214 75 186 C74 158 73 130 72 101 C72 93 73 84 74 75 C76 67 77 58 79 49 C81 43 83 38 87 33 C91 29 97 26 103 26 C115 27 123 35 127 49 C127 51 127 52 127 52 C128 53 128 54 128 55 C134 81 138 106 143 132 C149 158 154 184 159 209 C164 229 166 247 166 267 C166 287 167 307 168 326 C169 332 170 338 170 344 C171 351 177 354 187 354 L187 354 Z " />
<glyph glyph-name="x" unicode="x" horiz-adv-x="309" d="M246 95 C246 95 246 95 246 95 C254 90 258 86 260 80 C262 75 262 69 258 62 C254 53 247 46 238 40 C230 35 220 33 208 34 C195 36 183 41 172 47 C162 54 153 64 147 77 C144 83 141 90 139 96 C137 103 135 110 132 117 C130 123 129 127 127 132 C125 138 123 144 120 152 C117 147 115 143 113 140 C111 138 110 135 108 132 C105 121 102 111 98 99 C95 88 92 77 88 65 C82 47 72 31 56 19 C50 14 43 12 34 10 C26 9 18 9 10 11 C2 14 -4 18 -11 24 C-17 30 -22 37 -24 45 C-26 55 -27 64 -23 71 C-19 79 -11 86 0 94 C0 87 -1 80 -1 74 C-1 68 -1 62 -2 56 C-2 51 -2 46 -1 42 C1 38 4 35 9 32 C22 26 32 28 38 38 C44 47 50 56 56 64 C63 73 68 82 71 91 C78 109 83 128 87 146 C92 165 97 184 103 202 C108 218 108 232 104 245 C100 259 97 273 95 287 C94 298 92 309 90 319 C88 330 87 341 85 352 C84 361 83 369 80 376 C78 384 73 390 65 395 C53 405 43 403 34 390 C33 388 32 385 31 382 C31 380 30 377 28 374 C27 372 26 370 24 368 C23 366 22 364 20 361 C16 373 15 384 17 395 C20 407 25 415 32 419 C36 421 39 422 45 422 C51 423 56 422 59 420 C69 416 77 411 84 404 C92 398 97 389 99 377 C101 370 101 363 102 356 C104 350 105 343 106 335 C108 327 109 318 111 309 C113 301 115 292 117 283 C117 283 124 283 124 283 C126 287 127 290 128 294 C130 298 131 302 132 306 C139 323 145 340 151 356 C157 373 164 389 171 405 C177 417 184 425 195 429 C207 434 219 434 231 430 C239 428 242 425 244 421 C246 417 246 411 244 401 C243 402 241 402 239 402 C237 402 236 403 234 404 C224 410 217 413 211 412 C205 412 199 407 193 398 C189 393 187 388 183 381 C180 375 177 368 175 362 C169 343 163 324 156 304 C150 284 144 264 138 244 C133 224 133 203 138 181 C142 166 146 151 152 136 C158 122 164 107 169 91 C175 75 185 65 200 59 C222 51 237 58 243 81 C245 85 246 89 246 95 L246 95 Z " />
<glyph glyph-name="y" unicode="y" horiz-adv-x="249" d="M193 423 C193 423 193 423 193 423 C199 421 201 418 201 414 C201 410 202 406 202 402 C203 388 203 373 203 358 C204 344 204 329 204 313 C204 274 204 236 202 196 C201 157 200 118 200 78 C200 52 201 25 201 -1 C202 -27 203 -53 203 -79 C203 -88 204 -97 202 -107 C201 -116 198 -125 193 -134 C187 -145 178 -153 164 -158 C151 -162 138 -162 126 -157 C113 -151 103 -144 97 -132 C91 -120 91 -107 95 -94 C97 -90 98 -87 101 -85 C105 -82 108 -78 111 -73 C111 -82 111 -90 110 -96 C110 -102 110 -108 110 -114 C110 -130 119 -140 136 -144 C144 -146 151 -146 157 -144 C164 -141 169 -136 172 -129 C176 -121 178 -114 180 -107 C183 -99 184 -92 184 -85 C184 -66 184 -47 182 -29 C181 -10 180 9 178 29 C175 27 173 26 170 24 C168 23 166 21 164 19 C158 13 150 9 142 5 C134 2 126 0 117 -2 C93 -4 75 5 62 27 C59 34 57 40 54 47 C52 55 50 62 50 69 C50 99 51 128 51 157 C52 187 53 216 53 246 C54 254 55 262 54 270 C54 278 53 287 53 295 C53 307 53 318 53 329 C54 341 54 352 53 363 C53 371 52 378 51 384 C51 391 49 398 46 404 C39 426 27 429 11 411 C10 410 8 409 6 407 C5 409 4 410 2 411 C1 413 0 414 0 415 C0 422 1 427 5 430 C9 434 14 437 19 439 C25 443 28 444 32 442 C36 440 40 438 43 435 C55 426 61 416 64 402 C68 389 70 376 70 362 C70 362 70 296 70 296 C70 278 69 259 69 240 C69 222 69 203 69 184 C69 166 68 148 68 130 C68 112 68 94 68 75 C68 72 68 69 68 66 C69 64 70 61 70 57 C75 38 84 25 97 18 C111 12 127 15 146 27 C158 35 166 43 172 53 C178 64 181 76 181 90 C181 90 187 405 187 405 C187 409 187 411 187 415 C187 419 189 422 193 423 L193 423 Z " />
<glyph glyph-name="z" unicode="z" horiz-adv-x="264" d="M176 411 C176 411 176 411 176 411 C156 412 137 413 119 413 C101 414 84 414 66 412 C60 412 53 410 46 405 C40 401 33 396 27 392 C17 386 15 376 21 362 C29 365 38 368 48 372 C49 356 43 347 29 345 C24 345 20 346 14 350 C9 354 6 359 4 364 C0 380 3 394 12 404 C20 412 27 418 35 423 C43 429 52 432 62 433 C73 435 83 435 93 435 C104 435 115 435 126 435 C134 435 141 435 148 434 C156 434 163 433 170 432 C177 432 182 431 187 429 C193 427 198 423 202 416 C188 384 176 351 164 319 C154 290 143 262 133 232 C123 203 113 173 103 143 C101 136 98 129 95 121 C93 114 90 107 86 99 C78 77 84 58 103 42 C111 36 118 32 128 30 C138 29 147 29 156 31 C166 34 173 39 181 45 C189 52 195 60 197 69 C200 77 200 84 196 93 C193 103 187 110 179 115 C176 117 173 119 169 121 C165 123 160 126 153 129 C159 131 162 132 165 133 C169 135 171 135 173 134 C186 132 196 124 205 110 C215 96 219 82 218 66 C218 35 201 17 169 13 C156 11 144 11 132 11 C111 12 94 19 80 33 C67 48 61 66 62 87 C64 99 66 109 68 119 C82 156 96 193 110 229 C124 266 138 303 152 340 C156 351 160 362 163 373 C167 385 171 397 176 411 L176 411 Z " />
<glyph glyph-name="braceleft" unicode="&#x7b;" horiz-adv-x="176" d="M0 449 C0 449 0 449 0 449 C6 451 12 451 16 452 C21 454 26 455 30 455 C40 457 45 462 45 472 C45 485 45 497 45 509 C46 521 46 534 45 546 C44 572 42 597 40 623 C38 649 38 675 38 700 C40 725 42 749 45 773 C49 797 52 821 55 845 C59 863 68 874 82 879 C97 885 110 886 122 882 C123 882 126 880 131 874 C127 873 123 872 120 871 C118 871 115 870 111 869 C98 868 89 864 81 857 C74 851 70 841 68 827 C66 810 65 794 62 776 C60 759 58 742 57 724 C56 708 56 692 57 675 C59 659 60 642 60 625 C61 600 61 575 61 550 C61 526 62 501 62 475 C64 458 57 446 42 438 C44 436 45 434 45 432 C46 430 47 429 48 428 C58 424 62 418 64 410 C66 403 67 395 66 387 C64 365 63 342 60 320 C58 298 56 276 54 253 C52 230 50 206 48 182 C46 158 45 134 43 110 C43 99 44 89 46 77 C49 66 53 55 58 43 C64 32 70 26 76 23 C83 21 92 22 104 27 C106 28 106 29 107 28 C109 28 110 28 111 28 C116 14 111 5 96 3 C86 2 76 4 65 10 C55 17 47 26 41 37 C35 51 31 64 28 78 C26 92 25 106 26 120 C30 155 32 189 35 223 C39 257 42 291 45 325 C47 337 47 347 47 357 C48 368 49 379 50 390 C51 401 47 409 38 415 C32 420 26 425 20 430 C14 436 8 442 0 449 L0 449 Z " />
<glyph glyph-name="bar" unicode="&#x7c;" horiz-adv-x="78" d="M31 882 C31 882 31 882 31 882 C32 872 32 862 32 851 C33 841 33 830 32 819 C31 775 30 732 28 688 C27 645 26 601 24 557 C22 437 20 316 18 195 C18 166 17 137 17 108 C17 80 17 51 16 21 C16 17 17 13 16 8 C16 4 11 1 1 0 C1 4 0 7 0 11 C0 15 0 19 0 23 C2 115 4 205 6 295 C8 386 10 477 12 568 C13 612 13 655 13 698 C14 742 15 785 15 828 C15 836 16 842 15 848 C15 855 14 862 14 868 C14 880 20 885 31 882 L31 882 Z " />
<glyph glyph-name="braceright" unicode="&#x7d;" horiz-adv-x="183" d="M67 376 C67 376 67 376 67 376 C73 386 77 394 83 403 C89 413 95 422 100 431 C94 434 90 435 87 435 C85 435 79 435 70 433 C65 437 62 440 62 444 C62 449 63 454 64 459 C68 485 71 510 74 534 C78 559 81 584 85 609 C91 639 94 668 96 696 C99 725 99 754 95 784 C94 796 93 807 91 817 C89 828 87 838 83 848 C80 862 76 869 71 871 C67 873 58 872 44 868 C42 868 39 869 36 869 C32 877 34 883 42 887 C60 896 74 893 85 878 C91 870 96 861 99 851 C115 789 118 725 108 660 C105 641 102 622 100 603 C98 585 96 566 93 546 C91 533 89 520 87 505 C85 491 83 475 81 459 C91 460 98 460 106 460 C114 461 122 461 130 461 C130 454 128 448 125 442 C123 436 120 431 116 425 C113 420 111 415 107 409 C104 404 102 398 100 392 C118 377 127 359 131 339 C135 319 137 299 135 277 C134 262 133 247 133 232 C133 218 133 203 131 188 C129 170 128 152 125 134 C123 116 120 99 116 81 C110 49 91 26 58 12 C44 6 32 7 20 14 C9 22 3 33 1 48 C1 52 0 54 0 57 C0 61 0 64 0 67 C0 77 5 83 14 85 C15 83 15 80 15 78 C16 76 16 74 16 72 C16 69 16 66 15 63 C15 61 15 58 15 54 C16 40 20 31 28 26 C36 22 47 23 59 30 C67 34 73 39 77 45 C82 51 86 58 88 65 C92 75 94 83 96 92 C98 102 100 111 102 120 C110 152 113 185 114 217 C116 250 117 283 117 316 C118 321 119 325 117 329 C116 334 115 339 113 343 C110 356 107 363 103 365 C99 368 91 370 77 371 C77 371 67 376 67 376 L67 376 Z " />
<glyph glyph-name="asciitilde" unicode="&#x7e;" horiz-adv-x="346" d="M244 536 C252 546 259 548 267 543 C271 541 275 539 279 536 C283 534 286 530 287 526 C295 513 295 501 285 489 C276 478 264 473 248 474 C238 476 229 477 219 480 C209 484 200 487 190 490 C184 492 179 494 173 497 C167 501 162 504 156 507 C143 515 129 521 114 525 C100 530 85 534 69 536 C59 538 49 539 39 537 C29 536 20 529 10 515 C14 514 16 513 19 511 C23 510 27 509 31 507 C18 499 10 499 6 507 C4 511 4 514 2 519 C1 525 1 529 2 532 C7 546 16 553 28 553 C42 555 55 555 69 553 C91 550 111 545 131 537 C152 529 172 520 191 510 C199 507 206 505 214 501 C223 498 231 495 239 492 C245 490 251 490 259 491 C265 492 269 494 271 497 C274 501 276 505 276 509 C278 519 274 526 264 529 C261 531 259 531 255 532 C252 534 248 535 244 536 L244 536 Z " />
<glyph glyph-name="[namenotfound]" unicode="&#xa0;" horiz-adv-x="137" d="" />
</font>
</svg>
